<?xml version="1.0" encoding="UTF-8"?><svg id="Capa_2" xmlns="http://www.w3.org/2000/svg" xmlns:xlink="http://www.w3.org/1999/xlink" viewBox="0 0 4000 550"><defs><style>.cls-1{fill:url(#Degradado_sin_nombre_36);}.cls-2{fill:url(#Degradado_sin_nombre_28);}.cls-3{fill:url(#Degradado_sin_nombre_32);}.cls-4{stroke:#a65921;stroke-miterlimit:10;}</style><linearGradient id="Degradado_sin_nombre_28" x1="544.55" y1="517.41" x2="544.55" y2=".06" gradientUnits="userSpaceOnUse"><stop offset=".13" stop-color="#00afef"/><stop offset=".33" stop-color="#00aaeb"/><stop offset=".56" stop-color="#019ce0"/><stop offset=".8" stop-color="#0386cd"/><stop offset=".97" stop-color="#0671bd"/></linearGradient><linearGradient id="Degradado_sin_nombre_36" x1="373.48" y1="208.92" x2="175.06" y2="208.92" gradientUnits="userSpaceOnUse"><stop offset=".01" stop-color="#5d5d5e"/><stop offset=".27" stop-color="#4f4f4f"/><stop offset=".77" stop-color="#2a2a2a"/><stop offset=".97" stop-color="#1a1a1a"/></linearGradient><linearGradient id="Degradado_sin_nombre_32" x1="105.08" y1="550" x2="105.08" y2="6.71" gradientUnits="userSpaceOnUse"><stop offset="0" stop-color="#f9b70a"/><stop offset=".24" stop-color="#f9b209"/><stop offset=".52" stop-color="#f9a306"/><stop offset=".83" stop-color="#f98b03"/><stop offset=".97" stop-color="#f97e01"/></linearGradient></defs><g id="Capa_2-2"><path d="M1076.88,318.27h33.56v170.22h-33.56v-170.22Z"/><path d="M1144.84,362.59h32.95v12.9c7.47-6.04,14.24-10.24,20.31-12.6,6.07-2.36,12.27-3.54,18.62-3.54,13.02,0,24.07,4.36,33.15,13.08,7.63,7.41,11.45,18.36,11.45,32.86v83.2h-32.59v-55.13c0-15.02-.7-25-2.11-29.93-1.41-4.93-3.85-8.69-7.35-11.27-3.49-2.58-7.81-3.87-12.94-3.87-6.66,0-12.38,2.14-17.16,6.42-4.78,4.28-8.09,10.19-9.94,17.74-.96,3.93-1.44,12.44-1.44,25.54v50.51h-32.95v-125.9Z"/><path d="M1390.24,362.59h32.83v107.85c0,21.29-4.47,36.95-13.4,46.98-11.99,13.58-30.06,20.37-54.2,20.37-12.88,0-23.7-1.54-32.47-4.63-8.77-3.09-16.17-7.62-22.21-13.6-6.04-5.98-10.5-13.25-13.4-21.81h36.33c3.22,3.55,7.36,6.23,12.43,8.04,5.07,1.81,11.06,2.72,17.99,2.72,8.85,0,15.97-1.31,21.37-3.93,5.39-2.62,9.19-6.02,11.41-10.18,2.21-4.17,3.32-11.34,3.32-21.52-5.79,5.55-11.87,9.55-18.23,11.98-6.36,2.43-13.56,3.65-21.61,3.65-17.62,0-32.51-6.09-44.66-18.28-12.15-12.19-18.23-27.62-18.23-46.29,0-19.98,6.44-36.03,19.31-48.14,11.67-10.95,25.59-16.43,41.76-16.43,7.56,0,14.71,1.33,21.43,3.99,6.72,2.66,13.46,7.04,20.22,13.13v-13.89ZM1356.08,388.86c-10.38,0-18.95,3.34-25.71,10.01-6.76,6.67-10.14,15.06-10.14,25.17s3.46,19.09,10.38,25.8c6.92,6.71,15.61,10.07,26.07,10.07s18.65-3.28,25.29-9.84c6.64-6.56,9.96-15.16,9.96-25.8s-3.34-19.02-10.02-25.57c-6.68-6.56-15.29-9.84-25.83-9.84Z"/><path d="M1587.95,434.68h-105.86c1.53,8.95,5.61,16.07,12.25,21.35,6.64,5.29,15.11,7.93,25.41,7.93,12.31,0,22.89-4.13,31.75-12.38l27.76,12.5c-6.92,9.41-15.21,16.37-24.87,20.89-9.66,4.51-21.12,6.77-34.4,6.77-20.6,0-37.38-6.23-50.33-18.69-12.96-12.46-19.43-28.06-19.43-46.81s6.46-35.16,19.37-47.85c12.92-12.69,29.11-19.04,48.58-19.04,20.68,0,37.5,6.35,50.46,19.04,12.95,12.69,19.43,29.45,19.43,50.28l-.12,6.02ZM1555,409.8c-2.18-7.02-6.47-12.73-12.88-17.13-6.41-4.4-13.84-6.6-22.31-6.6-9.19,0-17.25,2.47-24.18,7.41-4.35,3.09-8.38,8.52-12.09,16.32h71.46Z"/><path d="M1614.63,362.59h32.95v12.9c7.47-6.04,14.24-10.24,20.31-12.6,6.07-2.36,12.27-3.54,18.62-3.54,13.02,0,24.07,4.36,33.15,13.08,7.63,7.41,11.45,18.36,11.45,32.86v83.2h-32.59v-55.13c0-15.02-.7-25-2.11-29.93-1.41-4.93-3.85-8.69-7.35-11.27-3.49-2.58-7.81-3.87-12.94-3.87-6.66,0-12.38,2.14-17.16,6.42-4.78,4.28-8.09,10.19-9.94,17.74-.96,3.93-1.44,12.44-1.44,25.54v50.51h-32.95v-125.9Z"/><path d="M1775.83,310.75c5.78,0,10.73,2.01,14.86,6.02,4.13,4.01,6.2,8.87,6.2,14.58s-2.05,10.43-6.14,14.41c-4.09,3.97-8.99,5.96-14.68,5.96s-10.85-2.03-14.99-6.08-6.2-8.97-6.2-14.75,2.04-10.3,6.14-14.23c4.09-3.93,9.03-5.9,14.81-5.9ZM1759.35,362.59h32.95v125.9h-32.95v-125.9Z"/><path d="M1953.81,434.68h-105.86c1.53,8.95,5.61,16.07,12.25,21.35,6.64,5.29,15.11,7.93,25.41,7.93,12.31,0,22.89-4.13,31.75-12.38l27.76,12.5c-6.92,9.41-15.21,16.37-24.87,20.89-9.66,4.51-21.12,6.77-34.4,6.77-20.6,0-37.38-6.23-50.33-18.69-12.96-12.46-19.43-28.06-19.43-46.81s6.46-35.16,19.37-47.85c12.92-12.69,29.11-19.04,48.58-19.04,20.68,0,37.5,6.35,50.46,19.04,12.95,12.69,19.43,29.45,19.43,50.28l-.12,6.02ZM1920.86,409.8c-2.18-7.02-6.47-12.73-12.88-17.13-6.41-4.4-13.84-6.6-22.31-6.6-9.19,0-17.25,2.47-24.18,7.41-4.35,3.09-8.38,8.52-12.09,16.32h71.46Z"/><path d="M1972.76,362.59h28.24v15.85c3.06-6.25,7.12-10.99,12.19-14.23,5.07-3.24,10.62-4.86,16.66-4.86,4.26,0,8.73,1.08,13.4,3.24l-10.26,27.19c-3.86-1.85-7.04-2.78-9.54-2.78-5.07,0-9.35,3.01-12.86,9.03-3.5,6.02-5.25,17.82-5.25,35.41l.12,6.13v50.92h-32.71v-125.9Z"/><path d="M2121.23,359.35c12.39,0,24.04,2.97,34.94,8.91,10.9,5.94,19.41,14,25.53,24.18,6.11,10.18,9.17,21.18,9.17,32.98s-3.08,22.99-9.23,33.33c-6.16,10.34-14.54,18.42-25.17,24.24-10.62,5.82-22.33,8.74-35.13,8.74-18.83,0-34.9-6.42-48.22-19.27-13.32-12.84-19.98-28.45-19.98-46.81,0-19.67,7.52-36.06,22.57-49.18,13.2-11.42,28.37-17.13,45.51-17.13ZM2121.78,389.09c-10.24,0-18.76,3.41-25.57,10.24-6.81,6.83-10.22,15.56-10.22,26.21s3.36,19.83,10.1,26.61c6.73,6.79,15.25,10.18,25.57,10.18s18.9-3.43,25.75-10.3c6.85-6.87,10.28-15.7,10.28-26.5s-3.37-19.57-10.1-26.33c-6.73-6.75-15.34-10.13-25.81-10.13Z"/><path d="M2288.17,318.27h33.56v170.22h-33.56v-170.22Z"/><path d="M2356.13,362.59h32.95v12.9c7.47-6.04,14.24-10.24,20.31-12.6,6.07-2.36,12.27-3.54,18.62-3.54,13.02,0,24.07,4.36,33.15,13.08,7.63,7.41,11.45,18.36,11.45,32.86v83.2h-32.59v-55.13c0-15.02-.7-25-2.11-29.93-1.4-4.93-3.85-8.69-7.35-11.27-3.49-2.58-7.81-3.87-12.94-3.87-6.66,0-12.38,2.14-17.16,6.42-4.78,4.28-8.09,10.19-9.94,17.74-.96,3.93-1.44,12.44-1.44,25.54v50.51h-32.95v-125.9Z"/><path d="M2488.78,362.59h11.71c.08-16.51.36-26.27.85-29.28.88-6.94,3.92-12.44,9.11-16.49,5.19-4.05,12.53-6.08,22.03-6.08,6.84,0,14.56,1.5,23.18,4.51v24.07c-4.75-1.31-8.65-1.97-11.71-1.97-3.86,0-6.68.77-8.45,2.31-1.29,1.16-1.93,3.55-1.93,7.17l-.12,15.74h20.88v26.73h-20.88v99.17h-32.95v-99.17h-11.71v-26.73Z"/><path d="M2635.32,359.35c12.39,0,24.04,2.97,34.94,8.91,10.9,5.94,19.41,14,25.53,24.18,6.11,10.18,9.17,21.18,9.17,32.98s-3.08,22.99-9.23,33.33c-6.16,10.34-14.55,18.42-25.17,24.24-10.62,5.82-22.33,8.74-35.13,8.74-18.83,0-34.9-6.42-48.22-19.27-13.32-12.84-19.98-28.45-19.98-46.81,0-19.67,7.52-36.06,22.57-49.18,13.2-11.42,28.37-17.13,45.51-17.13ZM2635.86,389.09c-10.24,0-18.76,3.41-25.57,10.24-6.81,6.83-10.22,15.56-10.22,26.21s3.36,19.83,10.1,26.61c6.73,6.79,15.25,10.18,25.57,10.18s18.9-3.43,25.75-10.3c6.85-6.87,10.28-15.7,10.28-26.5s-3.37-19.57-10.1-26.33c-6.73-6.75-15.33-10.13-25.81-10.13Z"/><path d="M2724.16,362.59h28.25v15.85c3.06-6.25,7.12-10.99,12.19-14.23,5.07-3.24,10.62-4.86,16.66-4.86,4.26,0,8.73,1.08,13.4,3.24l-10.26,27.19c-3.86-1.85-7.04-2.78-9.54-2.78-5.07,0-9.35,3.01-12.86,9.03-3.5,6.02-5.25,17.82-5.25,35.41l.12,6.13v50.92h-32.71v-125.9Z"/><path d="M2810.71,362.59h32.95v14.47c5.64-5.94,11.9-10.37,18.78-13.31,6.88-2.93,14.39-4.4,22.53-4.4s15.62,1.93,22.23,5.79c6.6,3.86,11.92,9.49,15.94,16.89,5.23-7.41,11.66-13.04,19.27-16.89,7.61-3.86,15.92-5.79,24.94-5.79s17.55,2.08,24.64,6.25c7.09,4.17,12.18,9.6,15.28,16.32,3.1,6.71,4.65,17.63,4.65,32.75v73.83h-33.19v-63.88c0-14.27-1.85-23.93-5.55-28.99-3.7-5.05-9.25-7.58-16.66-7.58-5.63,0-10.68,1.54-15.15,4.63-4.47,3.09-7.79,7.35-9.96,12.79-2.17,5.44-3.26,14.18-3.26,26.21v56.82h-33.19v-60.98c0-11.26-.87-19.42-2.6-24.47-1.74-5.05-4.34-8.81-7.8-11.28-3.47-2.47-7.66-3.7-12.58-3.7-5.48,0-10.47,1.56-14.94,4.69-4.48,3.12-7.82,7.5-10.04,13.13-2.22,5.63-3.33,14.51-3.33,26.62v56.01h-32.95v-125.9Z"/><path d="M3140.23,362.59h32.95v125.9h-32.95v-13.31c-6.43,5.86-12.88,10.09-19.35,12.67-6.47,2.58-13.48,3.88-21.04,3.88-16.96,0-31.63-6.31-44.01-18.92-12.38-12.61-18.57-28.29-18.57-47.04s5.99-35.37,17.97-47.79c11.98-12.42,26.52-18.63,43.64-18.63,7.88,0,15.27,1.43,22.18,4.28,6.91,2.86,13.3,7.14,19.17,12.85v-13.89ZM3105.59,388.51c-10.19,0-18.65,3.45-25.38,10.36-6.74,6.91-10.11,15.76-10.11,26.56s3.43,19.83,10.28,26.85c6.86,7.02,15.3,10.53,25.32,10.53s18.93-3.45,25.74-10.36c6.82-6.9,10.23-15.95,10.23-27.14s-3.41-19.83-10.23-26.61c-6.82-6.79-15.44-10.18-25.86-10.18ZM3114.4,294.2h38.99l-44.18,45.36h-23.66l28.85-45.36Z"/><path d="M3210.48,316.19h32.95v46.4h19.55v27.19h-19.55v98.71h-32.95v-98.71h-16.9v-27.19h16.9v-46.4Z"/><path d="M3293.47,310.75c5.78,0,10.73,2.01,14.86,6.02,4.13,4.01,6.2,8.87,6.2,14.58s-2.05,10.43-6.14,14.41c-4.09,3.97-8.99,5.96-14.68,5.96s-10.85-2.03-14.99-6.08-6.2-8.97-6.2-14.75,2.04-10.3,6.14-14.23c4.09-3.93,9.03-5.9,14.81-5.9ZM3277,362.59h32.95v125.9h-32.95v-125.9Z"/><path d="M3468.43,388.05l-27.43,14.47c-5.16-5.17-10.25-8.75-15.29-10.76-5.04-2.01-10.94-3.01-17.7-3.01-12.33,0-22.3,3.52-29.91,10.57-7.61,7.05-11.42,16.08-11.42,27.09s3.66,19.45,11,26.23c7.33,6.78,16.96,10.17,28.88,10.17,14.75,0,26.23-4.82,34.44-14.47l25.98,17.06c-14.08,17.56-33.96,26.34-59.63,26.34-23.1,0-41.18-6.56-54.26-19.67-13.08-13.11-19.61-28.47-19.61-46.06,0-12.19,3.18-23.41,9.54-33.67,6.36-10.26,15.23-18.32,26.62-24.18,11.39-5.86,24.12-8.79,38.2-8.79,13.04,0,24.75,2.49,35.13,7.46s18.87,12.06,25.47,21.23Z"/><path d="M3559.81,359.35c12.39,0,24.04,2.97,34.94,8.91,10.9,5.94,19.41,14,25.53,24.18,6.11,10.18,9.17,21.18,9.17,32.98s-3.08,22.99-9.23,33.33c-6.16,10.34-14.55,18.42-25.17,24.24-10.62,5.82-22.33,8.74-35.13,8.74-18.83,0-34.9-6.42-48.22-19.27-13.32-12.84-19.98-28.45-19.98-46.81,0-19.67,7.52-36.06,22.57-49.18,13.2-11.42,28.37-17.13,45.51-17.13ZM3560.35,389.09c-10.24,0-18.76,3.41-25.57,10.24-6.81,6.83-10.22,15.56-10.22,26.21s3.36,19.83,10.1,26.61c6.73,6.79,15.25,10.18,25.57,10.18s18.9-3.43,25.75-10.3c6.85-6.87,10.28-15.7,10.28-26.5s-3.37-19.57-10.1-26.33c-6.73-6.75-15.33-10.13-25.81-10.13Z"/><path class="cls-4" d="M872.98,264.67h-36.85v-121.22c0-6.38.76-15.28,2.29-26.69l-33.09,125.46h-19.49l-33.25-125.46c1.53,11.62,2.29,20.52,2.29,26.69v121.22h-36.85V18.93h36.2l40.29,135.83c.44,1.47.76,5.18.98,11.15,0-2.62.33-6.33.98-11.15l40.29-135.83h36.2v245.75Z"/><path class="cls-4" d="M939.81,83.31h-37.51v-37.06h37.51v37.06ZM939.48,264.67h-36.85V106.07h36.85v158.6Z"/><path class="cls-4" d="M1077.07,302.99c0,13.08-7.04,19.63-21.13,19.63h-65.19c-14.09,0-21.13-6.54-21.13-19.63v-25.44h36.2v19h33.91v-32.82h-38.49c-10.48,0-18.81-2.83-24.98-8.48-6.17-5.65-9.25-13.45-9.25-23.4v-97.04c0-9.11,2.67-16.28,8.03-21.51,5.35-5.23,12.72-7.85,22.11-7.85,4.69,0,18.89,2.15,42.59,6.44v-5.81h37.35v196.91ZM1039.72,234.84v-97.51c-12.56-1.26-20.37-1.88-23.42-1.88-8.08,0-12.12,3.82-12.12,11.46v76c0,7.96,4.15,11.93,12.45,11.93h23.1Z"/><path class="cls-4" d="M1214.33,264.67h-37.35v-5.5c-8.63,1.36-17.31,2.72-26.04,4.08-10.59,1.57-19.33,2.36-26.21,2.36-13.65,0-20.47-6.54-20.47-19.63V106.07h37.18v128.76l35.54-.79v-127.98h37.35v158.6Z"/><path class="cls-4" d="M1348.48,245.04c0,13.09-7.04,19.63-21.13,19.63h-64.7c-14.09,0-21.13-6.54-21.13-19.63v-119.34c0-13.08,7.04-19.63,21.13-19.63h64.7c14.09,0,21.13,6.54,21.13,19.63v58.26l-10.32,9.89h-60.77v44.44h35.22v-26.38h35.87v33.13ZM1312.61,170.45v-38h-35.22v38h35.22Z"/><path class="cls-4" d="M1413.5,264.67h-36.85V18.93h36.85v245.75Z"/><path class="cls-4" d="M1667.39,264.67h-36.85v-121.22c0-6.38.76-15.28,2.29-26.69l-33.09,125.46h-19.49l-33.25-125.46c1.53,11.62,2.29,20.52,2.29,26.69v121.22h-36.85V18.93h36.2l40.29,135.83c.44,1.47.76,5.18.98,11.15,0-2.62.33-6.33.98-11.15l40.29-135.83h36.2v245.75Z"/><path class="cls-4" d="M1802.68,264.67h-35.87v-5.5c-8.52,1.26-17.04,2.51-25.55,3.77-11.14,1.57-19.6,2.36-25.39,2.36-13.65,0-20.47-6.44-20.47-19.31v-57.16c0-13.09,7.04-19.63,21.13-19.63h50.61v-36.43h-35.87v22.61h-33.91v-29.68c0-13.08,7.04-19.63,21.13-19.63h63.39c13.87,0,20.8,6.54,20.8,19.63v138.97ZM1767.14,236.09v-42.55h-35.87v43.81l35.87-1.26Z"/><path class="cls-4" d="M1939.62,264.67h-37.35v-5.5c-8.63,1.36-17.31,2.72-26.04,4.08-10.59,1.57-19.33,2.36-26.21,2.36-13.65,0-20.47-6.54-20.47-19.63V106.07h37.18v128.76l35.54-.79v-127.98h37.35v158.6Z"/><path class="cls-4" d="M2071.14,172.34h-37.18v-36.27l-29.65.63v127.98h-37.51V106.07h37.51v5.81c7.75-1.36,15.45-2.72,23.1-4.08,9.28-1.57,17.03-2.36,23.26-2.36,13.65,0,20.47,6.44,20.47,19.31v47.58Z"/><path class="cls-4" d="M2130.44,83.31h-37.51v-37.06h37.51v37.06ZM2130.11,264.67h-36.85V106.07h36.85v158.6Z"/><path class="cls-4" d="M2264.91,245.04c0,13.09-6.94,19.63-20.8,19.63h-65.03c-14.09,0-21.13-6.54-21.13-19.63v-119.34c0-13.08,7.04-19.63,21.13-19.63h65.03c13.87,0,20.8,6.54,20.8,19.63v37.69h-36.53v-27.32h-33.58v98.77h33.58v-30.31h36.53v40.51Z"/><path class="cls-4" d="M2329.94,83.31h-37.51v-37.06h37.51v37.06ZM2329.61,264.67h-36.85V106.07h36.85v158.6Z"/><path class="cls-4" d="M2466.55,245.04c0,13.09-6.94,19.63-20.8,19.63h-67.16c-14.09,0-21.13-6.54-21.13-19.63v-119.34c0-13.08,7.04-19.63,21.13-19.63h67.16c13.87,0,20.8,6.54,20.8,19.63v119.34ZM2429.86,234.84v-98.77h-35.54v98.77h35.54Z"/><path d="M2695.86,264.67h-39.97l-42.26-114.16v-22.14h37.67V50.49h-48.32v214.18h-38.33V18.93h101.72c15.4,0,23.1,7.54,23.1,22.61v89.35c0,10.36-3.66,17.06-10.97,20.1-3.93,1.57-12.23,2.35-24.9,2.35l42.26,111.33Z"/><path d="M2755.48,83.31h-37.51v-37.06h37.51v37.06ZM2755.15,264.67h-36.85V106.07h36.85v158.6Z"/><path d="M2895.04,106.07l-42.26,158.91h-35.87l-42.26-158.91h38.49l21.79,104.26,21.78-104.26h38.33Z"/><path d="M3020.5,245.04c0,13.09-7.04,19.63-21.13,19.63h-64.7c-14.09,0-21.13-6.54-21.13-19.63v-119.34c0-13.08,7.04-19.63,21.13-19.63h64.7c14.09,0,21.13,6.54,21.13,19.63v58.26l-10.32,9.89h-60.77v44.44h35.22v-26.38h35.87v33.13ZM2984.63,170.45v-38h-35.22v38h35.22Z"/><path d="M3152.03,172.34h-37.18v-36.27l-29.65.63v127.98h-37.51V106.07h37.51v5.81c7.75-1.36,15.45-2.72,23.1-4.08,9.28-1.57,17.03-2.36,23.26-2.36,13.65,0,20.47,6.44,20.47,19.31v47.58Z"/><path d="M3279.79,264.67h-35.87v-5.5c-8.52,1.26-17.03,2.51-25.55,3.77-11.14,1.57-19.6,2.36-25.39,2.36-13.65,0-20.47-6.44-20.47-19.31v-57.16c0-13.09,7.04-19.63,21.13-19.63h50.61v-36.43h-35.87v22.61h-33.91v-29.68c0-13.08,7.04-19.63,21.13-19.63h63.39c13.87,0,20.8,6.54,20.8,19.63v138.97ZM3244.25,236.09v-42.55h-35.87v43.81l35.87-1.26Z"/><path d="M3478.47,264.67h-100.73V18.93h38.33v212.93h62.41v32.82Z"/><path d="M3608.36,245.04c0,13.09-6.94,19.63-20.8,19.63h-67.16c-14.09,0-21.13-6.54-21.13-19.63v-119.34c0-13.08,7.04-19.63,21.13-19.63h67.16c13.87,0,20.8,6.54,20.8,19.63v119.34ZM3602.63,54.1l-47.66,41.45h-27.52v-1.26l28.17-41.61h47.01v1.41ZM3571.67,234.84v-98.77h-35.54v98.77h35.54Z"/><path d="M3745.79,232.79c0,12.88-4.81,21.88-14.41,27.01-6.99,3.67-17.58,5.5-31.78,5.5-3.28,0-7.89-.11-13.84-.31-5.95-.21-10.24-.31-12.86-.31v57.94h-37.51V106.07h37.51v5.81c8.74-1.26,17.47-2.56,26.21-3.93,11.03-1.67,19.76-2.51,26.21-2.51,13.65,0,20.47,6.44,20.47,19.31v108.03ZM3708.12,222.9v-86.84l-35.22.63v98.14h23.26c7.97,0,11.96-3.98,11.96-11.93Z"/><path d="M3879.28,245.04c0,13.09-7.04,19.63-21.13,19.63h-64.7c-14.09,0-21.13-6.54-21.13-19.63v-119.34c0-13.08,7.04-19.63,21.13-19.63h64.7c14.09,0,21.13,6.54,21.13,19.63v58.26l-10.32,9.89h-60.77v44.44h35.22v-26.38h35.87v33.13ZM3843.41,170.45v-38h-35.22v38h35.22Z"/><path d="M4000,264.67h-99.59v-21.2l55.04-108.03h-50.61v-29.36h95.16v21.36l-55.36,108.03h55.36v29.21Z"/><g id="mrl"><path id="r" class="cls-2" d="M373.48,94.3l-.1-94.11L649.79.06c18.1,3.87,23.91,13.93,29.18,22.16,7.64,11.93,12.42,30.1,13.62,38.28,6.57,44.82,6.69,80.51.91,125.44-.92,7.17-1.29,13.63-3.83,22.22-2.18,7.31-3.92,14.07-9.09,21.09-8.91,12.1-24.63,16.66-43.75,22.11l22.08,45.02,60.69,144.93-48.7,76.11-139.64-265.35-88.45.15-.65,161.67-72.67-.04,3.6-259.49,223.94-1.57c12.22-9.54,11.85-16.54,12.9-26.67.95-9.14-.85-22.39-11.48-31.15-76.53-.22-148.46-.43-224.99-.65Z"/><path id="l" class="cls-1" d="M175.06,417.84l69.48-3.99,83.82-265.05c6.8-11.67,15.43-35.68,22.23-47.35,4.87-8.36,7.49-11.67,15.92-10.91,5.3,1.75,3.1,1.9,6.98,3.76l-.09-94c-14.21-.96-25.52.31-36.93,4.1-10.56,3.51-19.38,12.28-31.03,23.26-25.37,42.75-38.23,97.94-57.6,149.64l-72.78,240.53Z"/><path id="m" class="cls-3" d="M2.23,456.34C2.43,339.33-.19,200.5.01,83.49c2.54-13.54,5.26-16.15,9.87-24.72,4.93-9.16,13.28-19.64,18.76-28.46,2.72-3.79,9.56-14.35,15.04-18.69,4.89-3.86,13.18-3.77,18.89-4.91,8.49,0,13.51-.12,19.61,1.92,5.77,1.93,11.18,6.09,16.02,9.96,6.21,7.36,12.84,8.58,25.01,36.55,8.74,20.08,15.35,42.81,22.93,63.52,20.69,61.84,43.32,123.18,64.01,185.02l-35.1,116.16c-31.68-84.11-57.33-191.06-89.35-272.09-3.13-7.92-10.64-2.97-14.64,7.06.46,131.45-.41,263.73.05,395.17"/></g></g></svg>