<?xml version="1.0" encoding="UTF-8"?><svg id="mrl" xmlns="http://www.w3.org/2000/svg" xmlns:xlink="http://www.w3.org/1999/xlink" viewBox="0 0 4000 4000"><defs><style>.cls-1{fill:url(#Degradado_sin_nombre_36);}.cls-2{fill:url(#Degradado_sin_nombre_28);}.cls-3{fill:#fff;}.cls-4{fill:url(#Degradado_sin_nombre_32);}</style><linearGradient id="Degradado_sin_nombre_28" x1="2927.13" y1="3262.95" x2="2927.13" y2="697.44" gradientUnits="userSpaceOnUse"><stop offset=".13" stop-color="#00afef"/><stop offset=".33" stop-color="#00aaeb"/><stop offset=".56" stop-color="#019ce0"/><stop offset=".8" stop-color="#0386cd"/><stop offset=".97" stop-color="#0671bd"/></linearGradient><linearGradient id="Degradado_sin_nombre_36" x1="2080.22" y1="1733.17" x2="1097.89" y2="1733.17" gradientUnits="userSpaceOnUse"><stop offset=".01" stop-color="#5d5d5e"/><stop offset=".27" stop-color="#4f4f4f"/><stop offset=".77" stop-color="#2a2a2a"/><stop offset=".97" stop-color="#1a1a1a"/></linearGradient><linearGradient id="Degradado_sin_nombre_32" x1="751.43" y1="3424.55" x2="751.43" y2="730.45" gradientUnits="userSpaceOnUse"><stop offset="0" stop-color="#f9b70a"/><stop offset=".24" stop-color="#f9b209"/><stop offset=".52" stop-color="#f9a306"/><stop offset=".83" stop-color="#f98b03"/><stop offset=".97" stop-color="#f97e01"/></linearGradient></defs><circle class="cls-3" cx="2000" cy="2000" r="2000"/><path class="cls-3" d="M898.08,3018.37h27.82v141.35h-27.82v-141.35Z"/><path class="cls-3" d="M954.42,3055.17h27.32v10.71c6.19-5.01,11.81-8.5,16.84-10.46,5.03-1.96,10.18-2.94,15.44-2.94,10.79,0,19.95,3.62,27.48,10.86,6.33,6.15,9.49,15.25,9.49,27.29v69.09h-27.02v-45.78c0-12.48-.58-20.76-1.75-24.86-1.17-4.1-3.19-7.21-6.09-9.36-2.9-2.14-6.47-3.22-10.73-3.22-5.52,0-10.27,1.78-14.23,5.33-3.96,3.55-6.71,8.46-8.24,14.73-.8,3.26-1.2,10.33-1.2,21.21v41.94h-27.32v-104.55Z"/><path class="cls-3" d="M1157.86,3055.17h27.22v89.56c0,17.68-3.7,30.68-11.11,39.01-9.94,11.27-24.92,16.91-44.93,16.91-10.67,0-19.65-1.28-26.92-3.84-7.27-2.56-13.41-6.33-18.41-11.29-5-4.97-8.71-11-11.11-18.11h30.12c2.67,2.95,6.1,5.17,10.31,6.68,4.2,1.5,9.17,2.26,14.91,2.26,7.34,0,13.24-1.09,17.71-3.27,4.47-2.18,7.62-5,9.46-8.46,1.83-3.46,2.75-9.42,2.75-17.87-4.8,4.61-9.84,7.93-15.11,9.95-5.27,2.02-11.24,3.03-17.91,3.03-14.61,0-26.95-5.06-37.03-15.18-10.07-10.12-15.11-22.93-15.11-38.44,0-16.59,5.34-29.92,16.01-39.97,9.67-9.1,21.21-13.64,34.62-13.64,6.27,0,12.19,1.1,17.76,3.31,5.57,2.21,11.16,5.85,16.76,10.91v-11.53ZM1129.54,3076.98c-8.61,0-15.71,2.77-21.31,8.31-5.6,5.54-8.41,12.51-8.41,20.9s2.87,15.85,8.61,21.43c5.74,5.57,12.94,8.36,21.61,8.36s15.46-2.72,20.96-8.17c5.5-5.44,8.26-12.59,8.26-21.43s-2.77-15.79-8.31-21.24c-5.54-5.44-12.68-8.17-21.41-8.17Z"/><path class="cls-3" d="M1321.77,3115.03h-87.76c1.27,7.43,4.65,13.34,10.16,17.73,5.5,4.39,12.52,6.58,21.06,6.58,10.21,0,18.98-3.43,26.32-10.28l23.02,10.38c-5.74,7.82-12.61,13.6-20.61,17.34-8.01,3.75-17.51,5.62-28.52,5.62-17.08,0-30.99-5.17-41.73-15.52-10.74-10.34-16.11-23.3-16.11-38.87s5.35-29.2,16.06-39.73c10.71-10.54,24.13-15.81,40.28-15.81,17.14,0,31.09,5.27,41.83,15.81,10.74,10.54,16.11,24.46,16.11,41.75l-.1,5ZM1294.45,3094.37c-1.8-5.83-5.36-10.57-10.68-14.22s-11.48-5.48-18.49-5.48c-7.62,0-14.3,2.05-20.05,6.15-3.61,2.56-6.95,7.08-10.02,13.55h59.24Z"/><path class="cls-3" d="M1343.89,3055.17h27.32v10.71c6.19-5.01,11.81-8.5,16.84-10.46,5.03-1.96,10.18-2.94,15.44-2.94,10.79,0,19.95,3.62,27.48,10.86,6.33,6.15,9.49,15.25,9.49,27.29v69.09h-27.02v-45.78c0-12.48-.58-20.76-1.75-24.86-1.17-4.1-3.19-7.21-6.09-9.36-2.9-2.14-6.47-3.22-10.73-3.22-5.52,0-10.27,1.78-14.23,5.33-3.96,3.55-6.71,8.46-8.24,14.73-.8,3.26-1.2,10.33-1.2,21.21v41.94h-27.32v-104.55Z"/><path class="cls-3" d="M1477.53,3012.12c4.79,0,8.9,1.67,12.32,5s5.14,7.37,5.14,12.11-1.7,8.66-5.09,11.96c-3.39,3.3-7.45,4.95-12.17,4.95s-9-1.68-12.42-5.04-5.14-7.45-5.14-12.25,1.69-8.55,5.09-11.82c3.39-3.27,7.48-4.9,12.27-4.9ZM1463.87,3055.17h27.32v104.55h-27.32v-104.55Z"/><path class="cls-3" d="M1625.08,3115.03h-87.76c1.27,7.43,4.65,13.34,10.16,17.73,5.5,4.39,12.52,6.58,21.06,6.58,10.21,0,18.98-3.43,26.32-10.28l23.02,10.38c-5.74,7.82-12.61,13.6-20.61,17.34-8.01,3.75-17.51,5.62-28.52,5.62-17.08,0-30.99-5.17-41.73-15.52-10.74-10.34-16.11-23.3-16.11-38.87s5.35-29.2,16.06-39.73c10.71-10.54,24.13-15.81,40.28-15.81,17.14,0,31.09,5.27,41.83,15.81,10.74,10.54,16.11,24.46,16.11,41.75l-.1,5ZM1597.76,3094.37c-1.8-5.83-5.36-10.57-10.68-14.22s-11.48-5.48-18.49-5.48c-7.62,0-14.3,2.05-20.05,6.15-3.61,2.56-6.95,7.08-10.02,13.55h59.24Z"/><path class="cls-3" d="M1640.79,3055.17h23.42v13.16c2.53-5.19,5.9-9.13,10.11-11.82,4.2-2.69,8.81-4.04,13.81-4.04,3.54,0,7.24.9,11.11,2.69l-8.51,22.58c-3.2-1.54-5.84-2.31-7.91-2.31-4.2,0-7.76,2.5-10.66,7.5-2.9,5-4.35,14.8-4.35,29.4l.1,5.09v42.28h-27.12v-104.55Z"/><path class="cls-3" d="M1763.87,3052.48c10.27,0,19.93,2.47,28.97,7.4,9.04,4.93,16.09,11.63,21.16,20.08,5.07,8.46,7.6,17.58,7.6,27.39s-2.55,19.09-7.66,27.67c-5.1,8.58-12.06,15.29-20.86,20.13-8.81,4.84-18.51,7.25-29.12,7.25-15.61,0-28.94-5.33-39.98-16-11.04-10.67-16.56-23.62-16.56-38.87,0-16.33,6.24-29.95,18.71-40.84,10.94-9.48,23.52-14.22,37.73-14.22ZM1764.32,3077.17c-8.49,0-15.55,2.83-21.2,8.5-5.65,5.67-8.47,12.92-8.47,21.76s2.79,16.46,8.37,22.1c5.58,5.64,12.65,8.46,21.2,8.46s15.67-2.85,21.35-8.55c5.68-5.7,8.52-13.04,8.52-22s-2.79-16.25-8.37-21.86c-5.58-5.61-12.71-8.41-21.4-8.41Z"/><path class="cls-3" d="M1902.27,3018.37h27.82v141.35h-27.82v-141.35Z"/><path class="cls-3" d="M1958.6,3055.17h27.32v10.71c6.19-5.01,11.81-8.5,16.84-10.46,5.03-1.96,10.18-2.94,15.44-2.94,10.79,0,19.95,3.62,27.48,10.86,6.33,6.15,9.49,15.25,9.49,27.29v69.09h-27.02v-45.78c0-12.48-.58-20.76-1.75-24.86-1.16-4.1-3.19-7.21-6.09-9.36-2.9-2.14-6.47-3.22-10.73-3.22-5.52,0-10.27,1.78-14.23,5.33-3.96,3.55-6.71,8.46-8.24,14.73-.8,3.26-1.2,10.33-1.2,21.21v41.94h-27.32v-104.55Z"/><path class="cls-3" d="M2068.58,3055.17h9.71c.07-13.71.3-21.81.7-24.31.73-5.76,3.25-10.33,7.55-13.69s10.39-5.04,18.26-5.04c5.67,0,12.07,1.25,19.21,3.75v19.99c-3.94-1.09-7.17-1.63-9.71-1.63-3.2,0-5.54.64-7,1.92-1.07.96-1.6,2.95-1.6,5.96l-.1,13.07h17.31v22.2h-17.31v82.35h-27.32v-82.35h-9.71v-22.2Z"/><path class="cls-3" d="M2190.06,3052.48c10.27,0,19.93,2.47,28.97,7.4,9.04,4.93,16.09,11.63,21.16,20.08,5.07,8.46,7.61,17.58,7.61,27.39s-2.55,19.09-7.66,27.67c-5.1,8.58-12.06,15.29-20.86,20.13s-18.51,7.25-29.12,7.25c-15.61,0-28.94-5.33-39.98-16-11.04-10.67-16.56-23.62-16.56-38.87,0-16.33,6.24-29.95,18.71-40.84,10.94-9.48,23.52-14.22,37.73-14.22ZM2190.51,3077.17c-8.49,0-15.55,2.83-21.2,8.5-5.65,5.67-8.47,12.92-8.47,21.76s2.79,16.46,8.37,22.1c5.58,5.64,12.65,8.46,21.2,8.46s15.67-2.85,21.35-8.55c5.68-5.7,8.52-13.04,8.52-22s-2.79-16.25-8.37-21.86c-5.58-5.61-12.71-8.41-21.4-8.41Z"/><path class="cls-3" d="M2263.71,3055.17h23.42v13.16c2.53-5.19,5.9-9.13,10.11-11.82,4.2-2.69,8.81-4.04,13.81-4.04,3.54,0,7.24.9,11.11,2.69l-8.51,22.58c-3.2-1.54-5.84-2.31-7.91-2.31-4.2,0-7.75,2.5-10.66,7.5-2.9,5-4.35,14.8-4.35,29.4l.1,5.09v42.28h-27.12v-104.55Z"/><path class="cls-3" d="M2335.46,3055.17h27.32v12.01c4.67-4.93,9.86-8.62,15.57-11.05,5.71-2.43,11.93-3.65,18.68-3.65s12.95,1.6,18.43,4.8c5.47,3.2,9.88,7.88,13.22,14.03,4.34-6.15,9.66-10.83,15.97-14.03,6.31-3.2,13.2-4.8,20.68-4.8s14.55,1.73,20.43,5.19c5.87,3.46,10.1,7.98,12.67,13.55s3.86,14.64,3.86,27.19v61.31h-27.52v-53.04c0-11.85-1.54-19.88-4.6-24.07-3.07-4.19-7.67-6.29-13.81-6.29-4.67,0-8.86,1.28-12.56,3.84-3.7,2.56-6.46,6.1-8.26,10.62-1.8,4.52-2.7,11.77-2.7,21.76v47.18h-27.52v-50.64c0-9.35-.72-16.13-2.16-20.32-1.44-4.2-3.59-7.32-6.47-9.37-2.88-2.05-6.35-3.08-10.43-3.08-4.55,0-8.68,1.3-12.39,3.89-3.71,2.59-6.49,6.23-8.33,10.91-1.84,4.68-2.76,12.04-2.76,22.1v46.51h-27.32v-104.55Z"/><path class="cls-3" d="M2608.65,3055.17h27.32v104.55h-27.32v-11.05c-5.33,4.87-10.68,8.38-16.04,10.52-5.36,2.15-11.18,3.22-17.44,3.22-14.06,0-26.22-5.24-36.48-15.71-10.26-10.47-15.39-23.49-15.39-39.06s4.96-29.37,14.89-39.69c9.93-10.31,21.99-15.47,36.18-15.47,6.53,0,12.66,1.19,18.39,3.55,5.73,2.37,11.03,5.93,15.89,10.67v-11.53ZM2579.93,3076.69c-8.45,0-15.46,2.87-21.04,8.6-5.58,5.73-8.38,13.08-8.38,22.05s2.84,16.46,8.53,22.29c5.68,5.83,12.68,8.74,20.99,8.74s15.69-2.87,21.34-8.6c5.65-5.73,8.48-13.24,8.48-22.53s-2.83-16.46-8.48-22.1c-5.65-5.64-12.8-8.46-21.44-8.46ZM2587.23,2998.38h32.32l-36.62,37.67h-19.61l23.92-37.67Z"/><path class="cls-3" d="M2666.89,3016.64h27.32v38.53h16.21v22.58h-16.21v81.97h-27.32v-81.97h-14.01v-22.58h14.01v-38.53Z"/><path class="cls-3" d="M2735.68,3012.12c4.79,0,8.9,1.67,12.32,5s5.14,7.37,5.14,12.11-1.7,8.66-5.09,11.96c-3.39,3.3-7.45,4.95-12.17,4.95s-9-1.68-12.42-5.04-5.14-7.45-5.14-12.25,1.7-8.55,5.09-11.82c3.39-3.27,7.48-4.9,12.27-4.9ZM2722.03,3055.17h27.32v104.55h-27.32v-104.55Z"/><path class="cls-3" d="M2880.73,3076.31l-22.74,12.01c-4.27-4.29-8.5-7.27-12.67-8.94-4.17-1.67-9.07-2.5-14.68-2.5-10.22,0-18.49,2.93-24.8,8.78-6.31,5.85-9.47,13.35-9.47,22.5s3.04,16.15,9.12,21.78c6.08,5.63,14.06,8.44,23.94,8.44,12.22,0,21.74-4,28.55-12.01l21.54,14.16c-11.68,14.58-28.15,21.87-49.43,21.87-19.15,0-34.14-5.44-44.98-16.33-10.84-10.89-16.26-23.64-16.26-38.24,0-10.12,2.63-19.44,7.91-27.96,5.27-8.52,12.62-15.21,22.07-20.08,9.44-4.87,20-7.3,31.67-7.3,10.81,0,20.51,2.07,29.12,6.2s15.64,10.01,21.11,17.63Z"/><path class="cls-3" d="M2956.49,3052.48c10.27,0,19.93,2.47,28.97,7.4,9.04,4.93,16.09,11.63,21.16,20.08,5.07,8.46,7.61,17.58,7.61,27.39s-2.55,19.09-7.66,27.67c-5.1,8.58-12.06,15.29-20.86,20.13s-18.51,7.25-29.12,7.25c-15.61,0-28.94-5.33-39.98-16-11.04-10.67-16.56-23.62-16.56-38.87,0-16.33,6.24-29.95,18.71-40.84,10.94-9.48,23.52-14.22,37.73-14.22ZM2956.94,3077.17c-8.49,0-15.55,2.83-21.2,8.5-5.65,5.67-8.47,12.92-8.47,21.76s2.79,16.46,8.37,22.1c5.58,5.64,12.65,8.46,21.2,8.46s15.67-2.85,21.35-8.55c5.68-5.7,8.52-13.04,8.52-22s-2.79-16.25-8.37-21.86c-5.58-5.61-12.71-8.41-21.4-8.41Z"/><path class="cls-3" d="M729.04,2973.86h-30.55v-100.66c0-5.3.63-12.69,1.9-22.17l-27.43,104.18h-16.16l-27.57-104.18c1.27,9.65,1.9,17.04,1.9,22.17v100.66h-30.55v-204.07h30.01l33.4,112.79c.36,1.22.63,4.3.81,9.26,0-2.17.27-5.26.81-9.26l33.4-112.79h30.01v204.07Z"/><path class="cls-3" d="M784.44,2823.25h-31.1v-30.77h31.1v30.77ZM784.17,2973.86h-30.55v-131.7h30.55v131.7Z"/><path class="cls-3" d="M898.24,3005.67c0,10.87-5.84,16.3-17.52,16.3h-54.04c-11.68,0-17.52-5.43-17.52-16.3v-21.12h30.01v15.78h28.11v-27.25h-31.91c-8.69,0-15.59-2.35-20.71-7.04-5.12-4.69-7.67-11.17-7.67-19.43v-80.58c0-7.56,2.22-13.52,6.65-17.86,4.43-4.35,10.54-6.52,18.33-6.52,3.89,0,15.66,1.78,35.31,5.35v-4.82h30.96v163.51ZM867.28,2949.08v-80.97c-10.41-1.04-16.88-1.56-19.42-1.56-6.7,0-10.05,3.17-10.05,9.52v63.11c0,6.61,3.44,9.91,10.32,9.91h19.15Z"/><path class="cls-3" d="M1012.03,2973.86h-30.96v-4.56c-7.15,1.13-14.35,2.26-21.59,3.39-8.78,1.3-16.02,1.96-21.73,1.96-11.32,0-16.97-5.43-16.97-16.3v-116.18h30.82v106.92l29.47-.65v-106.27h30.96v131.7Z"/><path class="cls-3" d="M1123.24,2957.56c0,10.87-5.84,16.3-17.52,16.3h-53.64c-11.68,0-17.52-5.43-17.52-16.3v-99.1c0-10.87,5.84-16.3,17.52-16.3h53.64c11.68,0,17.52,5.43,17.52,16.3v48.38l-8.55,8.21h-50.38v36.9h29.19v-21.91h29.74v27.51ZM1093.5,2895.62v-31.55h-29.19v31.55h29.19Z"/><path class="cls-3" d="M1177.15,2973.86h-30.55v-204.07h30.55v204.07Z"/><path class="cls-3" d="M1387.62,2973.86h-30.55v-100.66c0-5.3.63-12.69,1.9-22.17l-27.43,104.18h-16.16l-27.57-104.18c1.27,9.65,1.9,17.04,1.9,22.17v100.66h-30.55v-204.07h30.01l33.4,112.79c.36,1.22.63,4.3.81,9.26,0-2.17.27-5.26.81-9.26l33.4-112.79h30.01v204.07Z"/><path class="cls-3" d="M1499.79,2973.86h-29.74v-4.56c-7.06,1.04-14.12,2.09-21.18,3.13-9.23,1.3-16.25,1.96-21.05,1.96-11.32,0-16.97-5.35-16.97-16.04v-47.46c0-10.87,5.84-16.3,17.52-16.3h41.96v-30.25h-29.74v18.78h-28.11v-24.64c0-10.87,5.84-16.3,17.52-16.3h52.55c11.5,0,17.25,5.43,17.25,16.3v115.4ZM1470.32,2950.12v-35.34h-29.74v36.38l29.74-1.04Z"/><path class="cls-3" d="M1613.31,2973.86h-30.96v-4.56c-7.15,1.13-14.35,2.26-21.59,3.39-8.78,1.3-16.02,1.96-21.73,1.96-11.32,0-16.97-5.43-16.97-16.3v-116.18h30.82v106.92l29.47-.65v-106.27h30.96v131.7Z"/><path class="cls-3" d="M1722.35,2897.19h-30.82v-30.12l-24.58.52v106.27h-31.1v-131.7h31.1v4.82c6.43-1.13,12.81-2.26,19.15-3.39,7.69-1.3,14.12-1.96,19.28-1.96,11.32,0,16.97,5.35,16.97,16.04v39.51Z"/><path class="cls-3" d="M1771.5,2823.25h-31.1v-30.77h31.1v30.77ZM1771.23,2973.86h-30.55v-131.7h30.55v131.7Z"/><path class="cls-3" d="M1882.99,2957.56c0,10.87-5.75,16.3-17.25,16.3h-53.91c-11.68,0-17.52-5.43-17.52-16.3v-99.1c0-10.87,5.84-16.3,17.52-16.3h53.91c11.5,0,17.25,5.43,17.25,16.3v31.29h-30.28v-22.69h-27.84v82.02h27.84v-25.17h30.28v33.64Z"/><path class="cls-3" d="M1936.9,2823.25h-31.1v-30.77h31.1v30.77ZM1936.62,2973.86h-30.55v-131.7h30.55v131.7Z"/><path class="cls-3" d="M2050.14,2957.56c0,10.87-5.75,16.3-17.25,16.3h-55.67c-11.68,0-17.52-5.43-17.52-16.3v-99.1c0-10.87,5.84-16.3,17.52-16.3h55.67c11.5,0,17.25,5.43,17.25,16.3v99.1ZM2019.73,2949.08v-82.02h-29.47v82.02h29.47Z"/><path class="cls-3" d="M2240.25,2973.86h-33.13l-35.03-94.8v-18.39h31.23v-64.67h-40.06v177.86h-31.77v-204.07h84.33c12.76,0,19.15,6.26,19.15,18.78v74.19c0,8.61-3.03,14.17-9.1,16.69-3.26,1.3-10.14,1.96-20.64,1.96l35.03,92.45Z"/><path class="cls-3" d="M2289.68,2823.25h-31.1v-30.77h31.1v30.77ZM2289.41,2973.86h-30.55v-131.7h30.55v131.7Z"/><path class="cls-3" d="M2405.37,2842.16l-35.03,131.96h-29.74l-35.03-131.96h31.91l18.06,86.58,18.06-86.58h31.78Z"/><path class="cls-3" d="M2509.39,2957.56c0,10.87-5.84,16.3-17.52,16.3h-53.64c-11.68,0-17.52-5.43-17.52-16.3v-99.1c0-10.87,5.84-16.3,17.52-16.3h53.64c11.68,0,17.52,5.43,17.52,16.3v48.38l-8.55,8.21h-50.38v36.9h29.19v-21.91h29.74v27.51ZM2479.65,2895.62v-31.55h-29.19v31.55h29.19Z"/><path class="cls-3" d="M2618.43,2897.19h-30.82v-30.12l-24.58.52v106.27h-31.1v-131.7h31.1v4.82c6.43-1.13,12.81-2.26,19.15-3.39,7.69-1.3,14.12-1.96,19.28-1.96,11.32,0,16.97,5.35,16.97,16.04v39.51Z"/><path class="cls-3" d="M2724.34,2973.86h-29.74v-4.56c-7.06,1.04-14.12,2.09-21.18,3.13-9.23,1.3-16.25,1.96-21.05,1.96-11.32,0-16.97-5.35-16.97-16.04v-47.46c0-10.87,5.84-16.3,17.52-16.3h41.96v-30.25h-29.74v18.78h-28.11v-24.64c0-10.87,5.84-16.3,17.52-16.3h52.55c11.5,0,17.25,5.43,17.25,16.3v115.4ZM2694.88,2950.12v-35.34h-29.74v36.38l29.74-1.04Z"/><path class="cls-3" d="M2889.06,2973.86h-83.51v-204.07h31.77v176.81h51.74v27.25Z"/><path class="cls-3" d="M2996.74,2957.56c0,10.87-5.75,16.3-17.25,16.3h-55.67c-11.68,0-17.52-5.43-17.52-16.3v-99.1c0-10.87,5.84-16.3,17.52-16.3h55.67c11.5,0,17.25,5.43,17.25,16.3v99.1ZM2991.99,2799l-39.51,34.42h-22.81v-1.04l23.36-34.55h38.97v1.17ZM2966.32,2949.08v-82.02h-29.47v82.02h29.47Z"/><path class="cls-3" d="M3110.67,2947.39c0,10.69-3.98,18.17-11.95,22.43-5.79,3.04-14.58,4.56-26.34,4.56-2.72,0-6.54-.09-11.47-.26-4.94-.17-8.49-.26-10.66-.26v48.12h-31.1v-179.81h31.1v4.82c7.24-1.04,14.48-2.13,21.73-3.26,9.14-1.39,16.38-2.09,21.73-2.09,11.32,0,16.97,5.35,16.97,16.04v89.71ZM3079.43,2939.17v-72.11l-29.2.52v81.5h19.28c6.61,0,9.91-3.3,9.91-9.91Z"/><path class="cls-3" d="M3221.33,2957.56c0,10.87-5.84,16.3-17.52,16.3h-53.64c-11.68,0-17.52-5.43-17.52-16.3v-99.1c0-10.87,5.84-16.3,17.52-16.3h53.64c11.68,0,17.52,5.43,17.52,16.3v48.38l-8.55,8.21h-50.38v36.9h29.19v-21.91h29.74v27.51ZM3191.6,2895.62v-31.55h-29.19v31.55h29.19Z"/><path class="cls-3" d="M3321.41,2973.86h-82.56v-17.6l45.63-89.71h-41.96v-24.38h78.89v17.73l-45.9,89.71h45.9v24.25Z"/><g id="mrl-2"><path id="r" class="cls-3" d="M2080.22,1164.81l-.48-466.7,1368.37-.66c89.62,19.21,118.35,69.08,144.45,109.88,37.83,59.14,61.5,149.25,67.43,189.81,32.51,222.25,33.1,399.26,4.53,622.05-4.56,35.57-6.38,67.58-18.95,110.17-10.79,36.24-19.41,69.76-45.01,104.58-44.12,60.01-121.94,82.61-216.58,109.66l109.33,223.25,300.45,718.67-241.1,377.43-691.3-1315.84-437.9.72-3.22,801.69-359.76-.21,17.83-1286.78,1108.67-7.78c60.48-47.3,58.65-82.01,63.88-132.26,4.72-45.33-4.2-111.05-56.82-154.46-378.87-1.07-734.97-2.15-1113.84-3.22Z"/><path id="l" class="cls-3" d="M1097.89,2769.17l343.96-19.78,414.96-1314.33c33.66-57.87,76.38-176.92,110.04-234.79,24.1-41.43,37.07-57.88,78.81-54.1,26.26,8.65,15.33,9.42,34.57,18.64l-.43-466.11c-70.37-4.78-126.33,1.55-182.8,20.34-52.29,17.4-95.94,60.88-153.61,115.33-125.61,211.98-189.27,485.66-285.18,742.05l-360.31,1192.76Z"/><path id="m" class="cls-3" d="M242.26,2960.11c1-580.25-11.99-1268.67-10.99-1848.92,12.58-67.14,26.03-80.11,48.85-122.58,24.42-45.43,65.73-97.38,92.89-141.13,13.47-18.79,47.32-71.17,74.47-92.68,24.18-19.17,65.23-18.7,93.52-24.35,42.04,0,66.87-.58,97.09,9.51,28.58,9.55,55.35,30.18,79.32,49.41,30.74,36.5,63.58,42.56,123.84,181.26,43.27,99.6,76,212.29,113.51,314.99,102.43,306.66,214.44,610.85,316.87,917.51l-173.76,576.03c-156.85-417.09-283.82-947.46-442.34-1349.27-15.49-39.26-52.69-14.74-72.49,35.03,2.3,651.83-2.04,1307.8.26,1959.62"/></g><circle class="cls-3" cx="2000" cy="2000" r="2000"/><path d="M898.08,3018.37h27.82v141.35h-27.82v-141.35Z"/><path d="M954.42,3055.17h27.32v10.71c6.19-5.01,11.81-8.5,16.84-10.46,5.03-1.96,10.18-2.94,15.44-2.94,10.79,0,19.95,3.62,27.48,10.86,6.33,6.15,9.49,15.25,9.49,27.29v69.09h-27.02v-45.78c0-12.48-.58-20.76-1.75-24.86-1.17-4.1-3.19-7.21-6.09-9.36-2.9-2.14-6.47-3.22-10.73-3.22-5.52,0-10.27,1.78-14.23,5.33-3.96,3.55-6.71,8.46-8.24,14.73-.8,3.26-1.2,10.33-1.2,21.21v41.94h-27.32v-104.55Z"/><path d="M1157.86,3055.17h27.22v89.56c0,17.68-3.7,30.68-11.11,39.01-9.94,11.27-24.92,16.91-44.93,16.91-10.67,0-19.65-1.28-26.92-3.84-7.27-2.56-13.41-6.33-18.41-11.29-5-4.97-8.71-11-11.11-18.11h30.12c2.67,2.95,6.1,5.17,10.31,6.68,4.2,1.5,9.17,2.26,14.91,2.26,7.34,0,13.24-1.09,17.71-3.27,4.47-2.18,7.62-5,9.46-8.46,1.83-3.46,2.75-9.42,2.75-17.87-4.8,4.61-9.84,7.93-15.11,9.95-5.27,2.02-11.24,3.03-17.91,3.03-14.61,0-26.95-5.06-37.03-15.18-10.07-10.12-15.11-22.93-15.11-38.44,0-16.59,5.34-29.92,16.01-39.97,9.67-9.1,21.21-13.64,34.62-13.64,6.27,0,12.19,1.1,17.76,3.31,5.57,2.21,11.16,5.85,16.76,10.91v-11.53ZM1129.54,3076.98c-8.61,0-15.71,2.77-21.31,8.31-5.6,5.54-8.41,12.51-8.41,20.9s2.87,15.85,8.61,21.43c5.74,5.57,12.94,8.36,21.61,8.36s15.46-2.72,20.96-8.17c5.5-5.44,8.26-12.59,8.26-21.43s-2.77-15.79-8.31-21.24c-5.54-5.44-12.68-8.17-21.41-8.17Z"/><path d="M1321.77,3115.03h-87.76c1.27,7.43,4.65,13.34,10.16,17.73,5.5,4.39,12.52,6.58,21.06,6.58,10.21,0,18.98-3.43,26.32-10.28l23.02,10.38c-5.74,7.82-12.61,13.6-20.61,17.34-8.01,3.75-17.51,5.62-28.52,5.62-17.08,0-30.99-5.17-41.73-15.52-10.74-10.34-16.11-23.3-16.11-38.87s5.35-29.2,16.06-39.73c10.71-10.54,24.13-15.81,40.28-15.81,17.14,0,31.09,5.27,41.83,15.81,10.74,10.54,16.11,24.46,16.11,41.75l-.1,5ZM1294.45,3094.37c-1.8-5.83-5.36-10.57-10.68-14.22s-11.48-5.48-18.49-5.48c-7.62,0-14.3,2.05-20.05,6.15-3.61,2.56-6.95,7.08-10.02,13.55h59.24Z"/><path d="M1343.89,3055.17h27.32v10.71c6.19-5.01,11.81-8.5,16.84-10.46,5.03-1.96,10.18-2.94,15.44-2.94,10.79,0,19.95,3.62,27.48,10.86,6.33,6.15,9.49,15.25,9.49,27.29v69.09h-27.02v-45.78c0-12.48-.58-20.76-1.75-24.86-1.17-4.1-3.19-7.21-6.09-9.36-2.9-2.14-6.47-3.22-10.73-3.22-5.52,0-10.27,1.78-14.23,5.33-3.96,3.55-6.71,8.46-8.24,14.73-.8,3.26-1.2,10.33-1.2,21.21v41.94h-27.32v-104.55Z"/><path d="M1477.53,3012.12c4.79,0,8.9,1.67,12.32,5s5.14,7.37,5.14,12.11-1.7,8.66-5.09,11.96c-3.39,3.3-7.45,4.95-12.17,4.95s-9-1.68-12.42-5.04-5.14-7.45-5.14-12.25,1.69-8.55,5.09-11.82c3.39-3.27,7.48-4.9,12.27-4.9ZM1463.87,3055.17h27.32v104.55h-27.32v-104.55Z"/><path d="M1625.08,3115.03h-87.76c1.27,7.43,4.65,13.34,10.16,17.73,5.5,4.39,12.52,6.58,21.06,6.58,10.21,0,18.98-3.43,26.32-10.28l23.02,10.38c-5.74,7.82-12.61,13.6-20.61,17.34-8.01,3.75-17.51,5.62-28.52,5.62-17.08,0-30.99-5.17-41.73-15.52-10.74-10.34-16.11-23.3-16.11-38.87s5.35-29.2,16.06-39.73c10.71-10.54,24.13-15.81,40.28-15.81,17.14,0,31.09,5.27,41.83,15.81,10.74,10.54,16.11,24.46,16.11,41.75l-.1,5ZM1597.76,3094.37c-1.8-5.83-5.36-10.57-10.68-14.22s-11.48-5.48-18.49-5.48c-7.62,0-14.3,2.05-20.05,6.15-3.61,2.56-6.95,7.08-10.02,13.55h59.24Z"/><path d="M1640.79,3055.17h23.42v13.16c2.53-5.19,5.9-9.13,10.11-11.82,4.2-2.69,8.81-4.04,13.81-4.04,3.54,0,7.24.9,11.11,2.69l-8.51,22.58c-3.2-1.54-5.84-2.31-7.91-2.31-4.2,0-7.76,2.5-10.66,7.5-2.9,5-4.35,14.8-4.35,29.4l.1,5.09v42.28h-27.12v-104.55Z"/><path d="M1763.87,3052.48c10.27,0,19.93,2.47,28.97,7.4,9.04,4.93,16.09,11.63,21.16,20.08,5.07,8.46,7.6,17.58,7.6,27.39s-2.55,19.09-7.66,27.67c-5.1,8.58-12.06,15.29-20.86,20.13-8.81,4.84-18.51,7.25-29.12,7.25-15.61,0-28.94-5.33-39.98-16-11.04-10.67-16.56-23.62-16.56-38.87,0-16.33,6.24-29.95,18.71-40.84,10.94-9.48,23.52-14.22,37.73-14.22ZM1764.32,3077.17c-8.49,0-15.55,2.83-21.2,8.5-5.65,5.67-8.47,12.92-8.47,21.76s2.79,16.46,8.37,22.1c5.58,5.64,12.65,8.46,21.2,8.46s15.67-2.85,21.35-8.55c5.68-5.7,8.52-13.04,8.52-22s-2.79-16.25-8.37-21.86c-5.58-5.61-12.71-8.41-21.4-8.41Z"/><path d="M1902.27,3018.37h27.82v141.35h-27.82v-141.35Z"/><path d="M1958.6,3055.17h27.32v10.71c6.19-5.01,11.81-8.5,16.84-10.46,5.03-1.96,10.18-2.94,15.44-2.94,10.79,0,19.95,3.62,27.48,10.86,6.33,6.15,9.49,15.25,9.49,27.29v69.09h-27.02v-45.78c0-12.48-.58-20.76-1.75-24.86-1.16-4.1-3.19-7.21-6.09-9.36-2.9-2.14-6.47-3.22-10.73-3.22-5.52,0-10.27,1.78-14.23,5.33-3.96,3.55-6.71,8.46-8.24,14.73-.8,3.26-1.2,10.33-1.2,21.21v41.94h-27.32v-104.55Z"/><path d="M2068.58,3055.17h9.71c.07-13.71.3-21.81.7-24.31.73-5.76,3.25-10.33,7.55-13.69s10.39-5.04,18.26-5.04c5.67,0,12.07,1.25,19.21,3.75v19.99c-3.94-1.09-7.17-1.63-9.71-1.63-3.2,0-5.54.64-7,1.92-1.07.96-1.6,2.95-1.6,5.96l-.1,13.07h17.31v22.2h-17.31v82.35h-27.32v-82.35h-9.71v-22.2Z"/><path d="M2190.06,3052.48c10.27,0,19.93,2.47,28.97,7.4,9.04,4.93,16.09,11.63,21.16,20.08,5.07,8.46,7.61,17.58,7.61,27.39s-2.55,19.09-7.66,27.67c-5.1,8.58-12.06,15.29-20.86,20.13s-18.51,7.25-29.12,7.25c-15.61,0-28.94-5.33-39.98-16-11.04-10.67-16.56-23.62-16.56-38.87,0-16.33,6.24-29.95,18.71-40.84,10.94-9.48,23.52-14.22,37.73-14.22ZM2190.51,3077.17c-8.49,0-15.55,2.83-21.2,8.5-5.65,5.67-8.47,12.92-8.47,21.76s2.79,16.46,8.37,22.1c5.58,5.64,12.65,8.46,21.2,8.46s15.67-2.85,21.35-8.55c5.68-5.7,8.52-13.04,8.52-22s-2.79-16.25-8.37-21.86c-5.58-5.61-12.71-8.41-21.4-8.41Z"/><path d="M2263.71,3055.17h23.42v13.16c2.53-5.19,5.9-9.13,10.11-11.82,4.2-2.69,8.81-4.04,13.81-4.04,3.54,0,7.24.9,11.11,2.69l-8.51,22.58c-3.2-1.54-5.84-2.31-7.91-2.31-4.2,0-7.75,2.5-10.66,7.5-2.9,5-4.35,14.8-4.35,29.4l.1,5.09v42.28h-27.12v-104.55Z"/><path d="M2335.46,3055.17h27.32v12.01c4.67-4.93,9.86-8.62,15.57-11.05,5.71-2.43,11.93-3.65,18.68-3.65s12.95,1.6,18.43,4.8c5.47,3.2,9.88,7.88,13.22,14.03,4.34-6.15,9.66-10.83,15.97-14.03,6.31-3.2,13.2-4.8,20.68-4.8s14.55,1.73,20.43,5.19c5.87,3.46,10.1,7.98,12.67,13.55s3.86,14.64,3.86,27.19v61.31h-27.52v-53.04c0-11.85-1.54-19.88-4.6-24.07-3.07-4.19-7.67-6.29-13.81-6.29-4.67,0-8.86,1.28-12.56,3.84-3.7,2.56-6.46,6.1-8.26,10.62-1.8,4.52-2.7,11.77-2.7,21.76v47.18h-27.52v-50.64c0-9.35-.72-16.13-2.16-20.32-1.44-4.2-3.59-7.32-6.47-9.37-2.88-2.05-6.35-3.08-10.43-3.08-4.55,0-8.68,1.3-12.39,3.89-3.71,2.59-6.49,6.23-8.33,10.91-1.84,4.68-2.76,12.04-2.76,22.1v46.51h-27.32v-104.55Z"/><path d="M2608.65,3055.17h27.32v104.55h-27.32v-11.05c-5.33,4.87-10.68,8.38-16.04,10.52-5.36,2.15-11.18,3.22-17.44,3.22-14.06,0-26.22-5.24-36.48-15.71-10.26-10.47-15.39-23.49-15.39-39.06s4.96-29.37,14.89-39.69c9.93-10.31,21.99-15.47,36.18-15.47,6.53,0,12.66,1.19,18.39,3.55,5.73,2.37,11.03,5.93,15.89,10.67v-11.53ZM2579.93,3076.69c-8.45,0-15.46,2.87-21.04,8.6-5.58,5.73-8.38,13.08-8.38,22.05s2.84,16.46,8.53,22.29c5.68,5.83,12.68,8.74,20.99,8.74s15.69-2.87,21.34-8.6c5.65-5.73,8.48-13.24,8.48-22.53s-2.83-16.46-8.48-22.1c-5.65-5.64-12.8-8.46-21.44-8.46ZM2587.23,2998.38h32.32l-36.62,37.67h-19.61l23.92-37.67Z"/><path d="M2666.89,3016.64h27.32v38.53h16.21v22.58h-16.21v81.97h-27.32v-81.97h-14.01v-22.58h14.01v-38.53Z"/><path d="M2735.68,3012.12c4.79,0,8.9,1.67,12.32,5s5.14,7.37,5.14,12.11-1.7,8.66-5.09,11.96c-3.39,3.3-7.45,4.95-12.17,4.95s-9-1.68-12.42-5.04-5.14-7.45-5.14-12.25,1.7-8.55,5.09-11.82c3.39-3.27,7.48-4.9,12.27-4.9ZM2722.03,3055.17h27.32v104.55h-27.32v-104.55Z"/><path d="M2880.73,3076.31l-22.74,12.01c-4.27-4.29-8.5-7.27-12.67-8.94-4.17-1.67-9.07-2.5-14.68-2.5-10.22,0-18.49,2.93-24.8,8.78-6.31,5.85-9.47,13.35-9.47,22.5s3.04,16.15,9.12,21.78c6.08,5.63,14.06,8.44,23.94,8.44,12.22,0,21.74-4,28.55-12.01l21.54,14.16c-11.68,14.58-28.15,21.87-49.43,21.87-19.15,0-34.14-5.44-44.98-16.33-10.84-10.89-16.26-23.64-16.26-38.24,0-10.12,2.63-19.44,7.91-27.96,5.27-8.52,12.62-15.21,22.07-20.08,9.44-4.87,20-7.3,31.67-7.3,10.81,0,20.51,2.07,29.12,6.2s15.64,10.01,21.11,17.63Z"/><path d="M2956.49,3052.48c10.27,0,19.93,2.47,28.97,7.4,9.04,4.93,16.09,11.63,21.16,20.08,5.07,8.46,7.61,17.58,7.61,27.39s-2.55,19.09-7.66,27.67c-5.1,8.58-12.06,15.29-20.86,20.13s-18.51,7.25-29.12,7.25c-15.61,0-28.94-5.33-39.98-16-11.04-10.67-16.56-23.62-16.56-38.87,0-16.33,6.24-29.95,18.71-40.84,10.94-9.48,23.52-14.22,37.73-14.22ZM2956.94,3077.17c-8.49,0-15.55,2.83-21.2,8.5-5.65,5.67-8.47,12.92-8.47,21.76s2.79,16.46,8.37,22.1c5.58,5.64,12.65,8.46,21.2,8.46s15.67-2.85,21.35-8.55c5.68-5.7,8.52-13.04,8.52-22s-2.79-16.25-8.37-21.86c-5.58-5.61-12.71-8.41-21.4-8.41Z"/><path d="M729.04,2973.86h-30.55v-100.66c0-5.3.63-12.69,1.9-22.17l-27.43,104.18h-16.16l-27.57-104.18c1.27,9.65,1.9,17.04,1.9,22.17v100.66h-30.55v-204.07h30.01l33.4,112.79c.36,1.22.63,4.3.81,9.26,0-2.17.27-5.26.81-9.26l33.4-112.79h30.01v204.07Z"/><path d="M784.44,2823.25h-31.1v-30.77h31.1v30.77ZM784.17,2973.86h-30.55v-131.7h30.55v131.7Z"/><path d="M898.24,3005.67c0,10.87-5.84,16.3-17.52,16.3h-54.04c-11.68,0-17.52-5.43-17.52-16.3v-21.12h30.01v15.78h28.11v-27.25h-31.91c-8.69,0-15.59-2.35-20.71-7.04-5.12-4.69-7.67-11.17-7.67-19.43v-80.58c0-7.56,2.22-13.52,6.65-17.86,4.43-4.35,10.54-6.52,18.33-6.52,3.89,0,15.66,1.78,35.31,5.35v-4.82h30.96v163.51ZM867.28,2949.08v-80.97c-10.41-1.04-16.88-1.56-19.42-1.56-6.7,0-10.05,3.17-10.05,9.52v63.11c0,6.61,3.44,9.91,10.32,9.91h19.15Z"/><path d="M1012.03,2973.86h-30.96v-4.56c-7.15,1.13-14.35,2.26-21.59,3.39-8.78,1.3-16.02,1.96-21.73,1.96-11.32,0-16.97-5.43-16.97-16.3v-116.18h30.82v106.92l29.47-.65v-106.27h30.96v131.7Z"/><path d="M1123.24,2957.56c0,10.87-5.84,16.3-17.52,16.3h-53.64c-11.68,0-17.52-5.43-17.52-16.3v-99.1c0-10.87,5.84-16.3,17.52-16.3h53.64c11.68,0,17.52,5.43,17.52,16.3v48.38l-8.55,8.21h-50.38v36.9h29.19v-21.91h29.74v27.51ZM1093.5,2895.62v-31.55h-29.19v31.55h29.19Z"/><path d="M1177.15,2973.86h-30.55v-204.07h30.55v204.07Z"/><path d="M1387.62,2973.86h-30.55v-100.66c0-5.3.63-12.69,1.9-22.17l-27.43,104.18h-16.16l-27.57-104.18c1.27,9.65,1.9,17.04,1.9,22.17v100.66h-30.55v-204.07h30.01l33.4,112.79c.36,1.22.63,4.3.81,9.26,0-2.17.27-5.26.81-9.26l33.4-112.79h30.01v204.07Z"/><path d="M1499.79,2973.86h-29.74v-4.56c-7.06,1.04-14.12,2.09-21.18,3.13-9.23,1.3-16.25,1.96-21.05,1.96-11.32,0-16.97-5.35-16.97-16.04v-47.46c0-10.87,5.84-16.3,17.52-16.3h41.96v-30.25h-29.74v18.78h-28.11v-24.64c0-10.87,5.84-16.3,17.52-16.3h52.55c11.5,0,17.25,5.43,17.25,16.3v115.4ZM1470.32,2950.12v-35.34h-29.74v36.38l29.74-1.04Z"/><path d="M1613.31,2973.86h-30.96v-4.56c-7.15,1.13-14.35,2.26-21.59,3.39-8.78,1.3-16.02,1.96-21.73,1.96-11.32,0-16.97-5.43-16.97-16.3v-116.18h30.82v106.92l29.47-.65v-106.27h30.96v131.7Z"/><path d="M1722.35,2897.19h-30.82v-30.12l-24.58.52v106.27h-31.1v-131.7h31.1v4.82c6.43-1.13,12.81-2.26,19.15-3.39,7.69-1.3,14.12-1.96,19.28-1.96,11.32,0,16.97,5.35,16.97,16.04v39.51Z"/><path d="M1771.5,2823.25h-31.1v-30.77h31.1v30.77ZM1771.23,2973.86h-30.55v-131.7h30.55v131.7Z"/><path d="M1882.99,2957.56c0,10.87-5.75,16.3-17.25,16.3h-53.91c-11.68,0-17.52-5.43-17.52-16.3v-99.1c0-10.87,5.84-16.3,17.52-16.3h53.91c11.5,0,17.25,5.43,17.25,16.3v31.29h-30.28v-22.69h-27.84v82.02h27.84v-25.17h30.28v33.64Z"/><path d="M1936.9,2823.25h-31.1v-30.77h31.1v30.77ZM1936.62,2973.86h-30.55v-131.7h30.55v131.7Z"/><path d="M2050.14,2957.56c0,10.87-5.75,16.3-17.25,16.3h-55.67c-11.68,0-17.52-5.43-17.52-16.3v-99.1c0-10.87,5.84-16.3,17.52-16.3h55.67c11.5,0,17.25,5.43,17.25,16.3v99.1ZM2019.73,2949.08v-82.02h-29.47v82.02h29.47Z"/><path d="M2240.25,2973.86h-33.13l-35.03-94.8v-18.39h31.23v-64.67h-40.06v177.86h-31.77v-204.07h84.33c12.76,0,19.15,6.26,19.15,18.78v74.19c0,8.61-3.03,14.17-9.1,16.69-3.26,1.3-10.14,1.96-20.64,1.96l35.03,92.45Z"/><path d="M2289.68,2823.25h-31.1v-30.77h31.1v30.77ZM2289.41,2973.86h-30.55v-131.7h30.55v131.7Z"/><path d="M2405.37,2842.16l-35.03,131.96h-29.74l-35.03-131.96h31.91l18.06,86.58,18.06-86.58h31.78Z"/><path d="M2509.39,2957.56c0,10.87-5.84,16.3-17.52,16.3h-53.64c-11.68,0-17.52-5.43-17.52-16.3v-99.1c0-10.87,5.84-16.3,17.52-16.3h53.64c11.68,0,17.52,5.43,17.52,16.3v48.38l-8.55,8.21h-50.38v36.9h29.19v-21.91h29.74v27.51ZM2479.65,2895.62v-31.55h-29.19v31.55h29.19Z"/><path d="M2618.43,2897.19h-30.82v-30.12l-24.58.52v106.27h-31.1v-131.7h31.1v4.82c6.43-1.13,12.81-2.26,19.15-3.39,7.69-1.3,14.12-1.96,19.28-1.96,11.32,0,16.97,5.35,16.97,16.04v39.51Z"/><path d="M2724.34,2973.86h-29.74v-4.56c-7.06,1.04-14.12,2.09-21.18,3.13-9.23,1.3-16.25,1.96-21.05,1.96-11.32,0-16.97-5.35-16.97-16.04v-47.46c0-10.87,5.84-16.3,17.52-16.3h41.96v-30.25h-29.74v18.78h-28.11v-24.64c0-10.87,5.84-16.3,17.52-16.3h52.55c11.5,0,17.25,5.43,17.25,16.3v115.4ZM2694.88,2950.12v-35.34h-29.74v36.38l29.74-1.04Z"/><path d="M2889.06,2973.86h-83.51v-204.07h31.77v176.81h51.74v27.25Z"/><path d="M2996.74,2957.56c0,10.87-5.75,16.3-17.25,16.3h-55.67c-11.68,0-17.52-5.43-17.52-16.3v-99.1c0-10.87,5.84-16.3,17.52-16.3h55.67c11.5,0,17.25,5.43,17.25,16.3v99.1ZM2991.99,2799l-39.51,34.42h-22.81v-1.04l23.36-34.55h38.97v1.17ZM2966.32,2949.08v-82.02h-29.47v82.02h29.47Z"/><path d="M3110.67,2947.39c0,10.69-3.98,18.17-11.95,22.43-5.79,3.04-14.58,4.56-26.34,4.56-2.72,0-6.54-.09-11.47-.26-4.94-.17-8.49-.26-10.66-.26v48.12h-31.1v-179.81h31.1v4.82c7.24-1.04,14.48-2.13,21.73-3.26,9.14-1.39,16.38-2.09,21.73-2.09,11.32,0,16.97,5.35,16.97,16.04v89.71ZM3079.43,2939.17v-72.11l-29.2.52v81.5h19.28c6.61,0,9.91-3.3,9.91-9.91Z"/><path d="M3221.33,2957.56c0,10.87-5.84,16.3-17.52,16.3h-53.64c-11.68,0-17.52-5.43-17.52-16.3v-99.1c0-10.87,5.84-16.3,17.52-16.3h53.64c11.68,0,17.52,5.43,17.52,16.3v48.38l-8.55,8.21h-50.38v36.9h29.19v-21.91h29.74v27.51ZM3191.6,2895.62v-31.55h-29.19v31.55h29.19Z"/><path d="M3321.41,2973.86h-82.56v-17.6l45.63-89.71h-41.96v-24.38h78.89v17.73l-45.9,89.71h45.9v24.25Z"/><g id="mrl-3"><path id="r-2" class="cls-2" d="M2080.22,1164.81l-.48-466.7,1368.37-.66c89.62,19.21,118.35,69.08,144.45,109.88,37.83,59.14,61.5,149.25,67.43,189.81,32.51,222.25,33.1,399.26,4.53,622.05-4.56,35.57-6.38,67.58-18.95,110.17-10.79,36.24-19.41,69.76-45.01,104.58-44.12,60.01-121.94,82.61-216.58,109.66l109.33,223.25,300.45,718.67-241.1,377.43-691.3-1315.84-437.9.72-3.22,801.69-359.76-.21,17.83-1286.78,1108.67-7.78c60.48-47.3,58.65-82.01,63.88-132.26,4.72-45.33-4.2-111.05-56.82-154.46-378.87-1.07-734.97-2.15-1113.84-3.22Z"/><path id="l-2" class="cls-1" d="M1097.89,2769.17l343.96-19.78,414.96-1314.33c33.66-57.87,76.38-176.92,110.04-234.79,24.1-41.43,37.07-57.88,78.81-54.1,26.26,8.65,15.33,9.42,34.57,18.64l-.43-466.11c-70.37-4.78-126.33,1.55-182.8,20.34-52.29,17.4-95.94,60.88-153.61,115.33-125.61,211.98-189.27,485.66-285.18,742.05l-360.31,1192.76Z"/><path id="m-2" class="cls-4" d="M242.26,2960.11c1-580.25-11.99-1268.67-10.99-1848.92,12.58-67.14,26.03-80.11,48.85-122.58,24.42-45.43,65.73-97.38,92.89-141.13,13.47-18.79,47.32-71.17,74.47-92.68,24.18-19.17,65.23-18.7,93.52-24.35,42.04,0,66.87-.58,97.09,9.51,28.58,9.55,55.35,30.18,79.32,49.41,30.74,36.5,63.58,42.56,123.84,181.26,43.27,99.6,76,212.29,113.51,314.99,102.43,306.66,214.44,610.85,316.87,917.51l-173.76,576.03c-156.85-417.09-283.82-947.46-442.34-1349.27-15.49-39.26-52.69-14.74-72.49,35.03,2.3,651.83-2.04,1307.8.26,1959.62"/></g></svg>