<?xml version="1.0" encoding="UTF-8"?><svg id="mrl" xmlns="http://www.w3.org/2000/svg" xmlns:xlink="http://www.w3.org/1999/xlink" viewBox="0 0 4000 4000"><defs><style>.cls-1{fill:url(#Degradado_sin_nombre_36);}.cls-2{fill:url(#Degradado_sin_nombre_28);}.cls-3{fill:#fff;}.cls-4{fill:#4070b9;}.cls-4,.cls-5{stroke:#069;stroke-miterlimit:10;}.cls-6{fill:url(#Degradado_sin_nombre_32);}.cls-5{fill:#de7d1e;}</style><linearGradient id="Degradado_sin_nombre_28" x1="2927.13" y1="3262.95" x2="2927.13" y2="697.44" gradientUnits="userSpaceOnUse"><stop offset=".13" stop-color="#00afef"/><stop offset=".33" stop-color="#00aaeb"/><stop offset=".56" stop-color="#019ce0"/><stop offset=".8" stop-color="#0386cd"/><stop offset=".97" stop-color="#0671bd"/></linearGradient><linearGradient id="Degradado_sin_nombre_36" x1="2080.22" y1="1733.17" x2="1097.89" y2="1733.17" gradientUnits="userSpaceOnUse"><stop offset=".01" stop-color="#5d5d5e"/><stop offset=".27" stop-color="#4f4f4f"/><stop offset=".77" stop-color="#2a2a2a"/><stop offset=".97" stop-color="#1a1a1a"/></linearGradient><linearGradient id="Degradado_sin_nombre_32" x1="751.43" y1="3424.55" x2="751.43" y2="730.45" gradientUnits="userSpaceOnUse"><stop offset="0" stop-color="#f9b70a"/><stop offset=".24" stop-color="#f9b209"/><stop offset=".52" stop-color="#f9a306"/><stop offset=".83" stop-color="#f98b03"/><stop offset=".97" stop-color="#f97e01"/></linearGradient></defs><circle class="cls-3" cx="2000" cy="2000" r="2000"/><path class="cls-3" d="M852.03,3141.27h-58.08v-190.42c0-10.03,1.2-24.01,3.61-41.93l-52.14,197.08h-30.72l-52.4-197.08c2.41,18.25,3.61,32.23,3.61,41.93v190.42h-58.08v-386.02h57.05l63.5,213.36c.69,2.31,1.2,8.14,1.55,17.51,0-4.11.52-9.95,1.55-17.51l63.5-213.36h57.05v386.02Z"/><path class="cls-3" d="M957.35,2856.38h-59.11v-58.21h59.11v58.21ZM956.83,3141.27h-58.08v-249.13h58.08v249.13Z"/><path class="cls-3" d="M1173.67,3201.46c0,20.55-11.1,30.83-33.3,30.83h-102.74c-22.2,0-33.3-10.28-33.3-30.83v-39.96h57.05v29.85h53.44v-51.55h-60.66c-16.52,0-29.64-4.44-39.37-13.32-9.72-8.88-14.58-21.13-14.58-36.75v-152.44c0-14.31,4.22-25.57,12.65-33.79,8.43-8.22,20.05-12.33,34.85-12.33,7.4,0,29.77,3.37,67.12,10.11v-9.13h58.86v309.31ZM1114.81,3094.41v-153.18c-19.79-1.97-32.1-2.96-36.91-2.96-12.74,0-19.1,6-19.1,18.01v119.38c0,12.5,6.54,18.75,19.62,18.75h36.4Z"/><path class="cls-3" d="M1389.99,3141.27h-58.86v-8.63c-13.6,2.14-27.28,4.28-41.04,6.41-16.69,2.47-30.46,3.7-41.3,3.7-21.51,0-32.27-10.27-32.27-30.83v-219.77h58.6v202.26l56.02-1.23v-201.03h58.86v249.13Z"/><path class="cls-3" d="M1601.4,3110.44c0,20.56-11.1,30.83-33.3,30.83h-101.96c-22.2,0-33.3-10.27-33.3-30.83v-187.46c0-20.55,11.1-30.83,33.3-30.83h101.96c22.2,0,33.3,10.28,33.3,30.83v91.51l-16.26,15.54h-95.77v69.8h55.5v-41.44h56.53v52.05ZM1544.87,2993.28v-59.69h-55.5v59.69h55.5Z"/><path class="cls-3" d="M1703.88,3141.27h-58.08v-386.02h58.08v386.02Z"/><path class="cls-3" d="M2104,3141.27h-58.08v-190.42c0-10.03,1.2-24.01,3.61-41.93l-52.14,197.08h-30.72l-52.4-197.08c2.41,18.25,3.61,32.23,3.61,41.93v190.42h-58.08v-386.02h57.05l63.5,213.36c.69,2.31,1.2,8.14,1.55,17.51,0-4.11.52-9.95,1.55-17.51l63.5-213.36h57.05v386.02Z"/><path class="cls-3" d="M2317.22,3141.27h-56.53v-8.63c-13.42,1.97-26.85,3.95-40.27,5.92-17.55,2.47-30.89,3.7-40.01,3.7-21.51,0-32.27-10.11-32.27-30.34v-89.78c0-20.56,11.1-30.83,33.3-30.83h79.77v-57.22h-56.53v35.52h-53.43v-46.62c0-20.55,11.1-30.83,33.3-30.83h99.9c21.85,0,32.78,10.28,32.78,30.83v218.29ZM2261.21,3096.38v-66.85h-56.53v68.82l56.53-1.97Z"/><path class="cls-3" d="M2533.03,3141.27h-58.86v-8.63c-13.6,2.14-27.28,4.28-41.04,6.41-16.69,2.47-30.46,3.7-41.3,3.7-21.51,0-32.27-10.27-32.27-30.83v-219.77h58.6v202.26l56.02-1.23v-201.03h58.86v249.13Z"/><path class="cls-3" d="M2740.31,2996.24h-58.6v-56.98l-46.72.99v201.03h-59.11v-249.13h59.11v9.13c12.22-2.13,24.35-4.27,36.4-6.41,14.63-2.47,26.85-3.7,36.65-3.7,21.51,0,32.27,10.11,32.27,30.34v74.74Z"/><path class="cls-3" d="M2833.76,2856.38h-59.11v-58.21h59.11v58.21ZM2833.24,3141.27h-58.08v-249.13h58.08v249.13Z"/><path class="cls-3" d="M3045.69,3110.44c0,20.56-10.93,30.83-32.78,30.83h-102.48c-22.2,0-33.3-10.27-33.3-30.83v-187.46c0-20.55,11.1-30.83,33.3-30.83h102.48c21.85,0,32.78,10.28,32.78,30.83v59.2h-57.57v-42.92h-52.92v155.15h52.92v-47.61h57.57v63.64Z"/><path class="cls-3" d="M3148.17,2856.38h-59.11v-58.21h59.11v58.21ZM3147.65,3141.27h-58.08v-249.13h58.08v249.13Z"/><path class="cls-3" d="M3363.46,3110.44c0,20.56-10.93,30.83-32.78,30.83h-105.84c-22.2,0-33.3-10.27-33.3-30.83v-187.46c0-20.55,11.1-30.83,33.3-30.83h105.84c21.85,0,32.78,10.28,32.78,30.83v187.46ZM3305.64,3094.41v-155.15h-56.02v155.15h56.02Z"/><path class="cls-3" d="M1057.37,3628.18h-62.99l-66.6-179.32v-34.78h59.37v-122.34h-76.15v336.44h-60.4v-386.02h160.3c24.27,0,36.4,11.84,36.4,35.52v140.35c0,16.28-5.77,26.8-17.29,31.57-6.19,2.47-19.28,3.7-39.24,3.7l66.6,174.88Z"/><path class="cls-3" d="M1151.34,3343.28h-59.12v-58.21h59.12v58.21ZM1150.82,3628.18h-58.08v-249.13h58.08v249.13Z"/><path class="cls-3" d="M1371.27,3379.05l-66.6,249.62h-56.53l-66.6-249.62h60.66l34.33,163.78,34.33-163.78h60.41Z"/><path class="cls-3" d="M1569,3597.34c0,20.56-11.1,30.83-33.3,30.83h-101.97c-22.2,0-33.3-10.27-33.3-30.83v-187.46c0-20.55,11.1-30.83,33.3-30.83h101.97c22.2,0,33.3,10.28,33.3,30.83v91.51l-16.26,15.54h-95.77v69.8h55.5v-41.44h56.53v52.05ZM1512.47,3480.18v-59.69h-55.5v59.69h55.5Z"/><path class="cls-3" d="M1776.29,3483.14h-58.6v-56.98l-46.72.99v201.03h-59.11v-249.13h59.11v9.13c12.22-2.13,24.35-4.27,36.4-6.41,14.63-2.47,26.85-3.7,36.66-3.7,21.51,0,32.27,10.11,32.27,30.34v74.74Z"/><path class="cls-3" d="M1977.64,3628.18h-56.53v-8.63c-13.42,1.97-26.85,3.95-40.27,5.92-17.55,2.47-30.89,3.7-40.01,3.7-21.51,0-32.27-10.11-32.27-30.34v-89.78c0-20.56,11.1-30.83,33.3-30.83h79.76v-57.22h-56.53v35.52h-53.44v-46.62c0-20.55,11.1-30.83,33.3-30.83h99.9c21.85,0,32.78,10.28,32.78,30.83v218.29ZM1921.62,3583.28v-66.85h-56.53v68.82l56.53-1.97Z"/><path class="cls-3" d="M2290.76,3628.18h-158.75v-386.02h60.4v334.47h98.35v51.55Z"/><path class="cls-3" d="M2495.46,3597.34c0,20.56-10.93,30.83-32.78,30.83h-105.84c-22.2,0-33.3-10.27-33.3-30.83v-187.46c0-20.55,11.1-30.83,33.3-30.83h105.84c21.85,0,32.78,10.28,32.78,30.83v187.46ZM2486.43,3297.41l-75.12,65.12h-43.37v-1.97l44.4-65.37h74.09v2.22ZM2437.64,3581.31v-155.15h-56.02v155.15h56.02Z"/><path class="cls-3" d="M2712.04,3578.1c0,20.23-7.57,34.37-22.72,42.43-11.02,5.76-27.71,8.63-50.08,8.63-5.16,0-12.43-.17-21.81-.49-9.38-.33-16.13-.49-20.27-.49v91.02h-59.11v-340.14h59.11v9.13c13.77-1.97,27.53-4.03,41.3-6.17,17.38-2.63,31.15-3.95,41.3-3.95,21.51,0,32.27,10.11,32.27,30.34v169.7ZM2652.67,3562.56v-136.4l-55.5.99v154.16h36.66c12.56,0,18.84-6.25,18.84-18.75Z"/><path class="cls-3" d="M2922.43,3597.34c0,20.56-11.1,30.83-33.3,30.83h-101.97c-22.2,0-33.3-10.27-33.3-30.83v-187.46c0-20.55,11.1-30.83,33.3-30.83h101.97c22.2,0,33.3,10.28,33.3,30.83v91.51l-16.26,15.54h-95.77v69.8h55.5v-41.44h56.53v52.05ZM2865.89,3480.18v-59.69h-55.5v59.69h55.5Z"/><path class="cls-3" d="M3112.68,3628.18h-156.95v-33.3l86.74-169.7h-79.76v-46.13h149.98v33.55l-87.25,169.7h87.25v45.88Z"/><g id="mrl-2"><path id="r" class="cls-3" d="M2080.22,1164.81l-.48-466.7,1368.37-.66c89.62,19.21,118.35,69.08,144.45,109.88,37.83,59.14,61.5,149.25,67.43,189.81,32.51,222.25,33.1,399.26,4.53,622.05-4.56,35.57-6.38,67.58-18.95,110.17-10.79,36.24-19.41,69.76-45.01,104.58-44.12,60.01-121.94,82.61-216.58,109.66l109.33,223.25,300.45,718.67-241.1,377.43-691.3-1315.84-437.9.72-3.22,801.69-359.76-.21,17.83-1286.78,1108.67-7.78c60.48-47.3,58.65-82.01,63.88-132.26,4.72-45.33-4.2-111.05-56.82-154.46-378.87-1.07-734.97-2.15-1113.84-3.22Z"/><path id="l" class="cls-3" d="M1097.89,2769.17l343.96-19.78,414.96-1314.33c33.66-57.87,76.38-176.92,110.04-234.79,24.1-41.43,37.07-57.88,78.81-54.1,26.26,8.65,15.33,9.42,34.57,18.64l-.43-466.11c-70.37-4.78-126.33,1.55-182.8,20.34-52.29,17.4-95.94,60.88-153.61,115.33-125.61,211.98-189.27,485.66-285.18,742.05l-360.31,1192.76Z"/><path id="m" class="cls-3" d="M242.26,2960.11c1-580.25-11.99-1268.67-10.99-1848.92,12.58-67.14,26.03-80.11,48.85-122.58,24.42-45.43,65.73-97.38,92.89-141.13,13.47-18.79,47.32-71.17,74.47-92.68,24.18-19.17,65.23-18.7,93.52-24.35,42.04,0,66.87-.58,97.09,9.51,28.58,9.55,55.35,30.18,79.32,49.41,30.74,36.5,63.58,42.56,123.84,181.26,43.27,99.6,76,212.29,113.51,314.99,102.43,306.66,214.44,610.85,316.87,917.51l-173.76,576.03c-156.85-417.09-283.82-947.46-442.34-1349.27-15.49-39.26-52.69-14.74-72.49,35.03,2.3,651.83-2.04,1307.8.26,1959.62"/></g><path class="cls-4" d="M852.03,3141.27h-58.08v-190.42c0-10.03,1.2-24.01,3.61-41.93l-52.14,197.08h-30.72l-52.4-197.08c2.41,18.25,3.61,32.23,3.61,41.93v190.42h-58.08v-386.02h57.05l63.5,213.36c.69,2.31,1.2,8.14,1.55,17.51,0-4.11.52-9.95,1.55-17.51l63.5-213.36h57.05v386.02Z"/><path class="cls-4" d="M957.35,2856.38h-59.11v-58.21h59.11v58.21ZM956.83,3141.27h-58.08v-249.13h58.08v249.13Z"/><path class="cls-4" d="M1173.67,3201.46c0,20.55-11.1,30.83-33.3,30.83h-102.74c-22.2,0-33.3-10.28-33.3-30.83v-39.96h57.05v29.85h53.44v-51.55h-60.66c-16.52,0-29.64-4.44-39.37-13.32-9.72-8.88-14.58-21.13-14.58-36.75v-152.44c0-14.31,4.22-25.57,12.65-33.79,8.43-8.22,20.05-12.33,34.85-12.33,7.4,0,29.77,3.37,67.12,10.11v-9.13h58.86v309.31ZM1114.81,3094.41v-153.18c-19.79-1.97-32.1-2.96-36.91-2.96-12.74,0-19.1,6-19.1,18.01v119.38c0,12.5,6.54,18.75,19.62,18.75h36.4Z"/><path class="cls-4" d="M1389.99,3141.27h-58.86v-8.63c-13.6,2.14-27.28,4.28-41.04,6.41-16.69,2.47-30.46,3.7-41.3,3.7-21.51,0-32.27-10.27-32.27-30.83v-219.77h58.6v202.26l56.02-1.23v-201.03h58.86v249.13Z"/><path class="cls-4" d="M1601.4,3110.44c0,20.56-11.1,30.83-33.3,30.83h-101.96c-22.2,0-33.3-10.27-33.3-30.83v-187.46c0-20.55,11.1-30.83,33.3-30.83h101.96c22.2,0,33.3,10.28,33.3,30.83v91.51l-16.26,15.54h-95.77v69.8h55.5v-41.44h56.53v52.05ZM1544.87,2993.28v-59.69h-55.5v59.69h55.5Z"/><path class="cls-4" d="M1703.88,3141.27h-58.08v-386.02h58.08v386.02Z"/><path class="cls-5" d="M2104,3141.27h-58.08v-190.42c0-10.03,1.2-24.01,3.61-41.93l-52.14,197.08h-30.72l-52.4-197.08c2.41,18.25,3.61,32.23,3.61,41.93v190.42h-58.08v-386.02h57.05l63.5,213.36c.69,2.31,1.2,8.14,1.55,17.51,0-4.11.52-9.95,1.55-17.51l63.5-213.36h57.05v386.02Z"/><path class="cls-5" d="M2317.22,3141.27h-56.53v-8.63c-13.42,1.97-26.85,3.95-40.27,5.92-17.55,2.47-30.89,3.7-40.01,3.7-21.51,0-32.27-10.11-32.27-30.34v-89.78c0-20.56,11.1-30.83,33.3-30.83h79.77v-57.22h-56.53v35.52h-53.43v-46.62c0-20.55,11.1-30.83,33.3-30.83h99.9c21.85,0,32.78,10.28,32.78,30.83v218.29ZM2261.21,3096.38v-66.85h-56.53v68.82l56.53-1.97Z"/><path class="cls-5" d="M2533.03,3141.27h-58.86v-8.63c-13.6,2.14-27.28,4.28-41.04,6.41-16.69,2.47-30.46,3.7-41.3,3.7-21.51,0-32.27-10.27-32.27-30.83v-219.77h58.6v202.26l56.02-1.23v-201.03h58.86v249.13Z"/><path class="cls-5" d="M2740.31,2996.24h-58.6v-56.98l-46.72.99v201.03h-59.11v-249.13h59.11v9.13c12.22-2.13,24.35-4.27,36.4-6.41,14.63-2.47,26.85-3.7,36.65-3.7,21.51,0,32.27,10.11,32.27,30.34v74.74Z"/><path class="cls-5" d="M2833.76,2856.38h-59.11v-58.21h59.11v58.21ZM2833.24,3141.27h-58.08v-249.13h58.08v249.13Z"/><path class="cls-5" d="M3045.69,3110.44c0,20.56-10.93,30.83-32.78,30.83h-102.48c-22.2,0-33.3-10.27-33.3-30.83v-187.46c0-20.55,11.1-30.83,33.3-30.83h102.48c21.85,0,32.78,10.28,32.78,30.83v59.2h-57.57v-42.92h-52.92v155.15h52.92v-47.61h57.57v63.64Z"/><path class="cls-5" d="M3148.17,2856.38h-59.11v-58.21h59.11v58.21ZM3147.65,3141.27h-58.08v-249.13h58.08v249.13Z"/><path class="cls-5" d="M3363.46,3110.44c0,20.56-10.93,30.83-32.78,30.83h-105.84c-22.2,0-33.3-10.27-33.3-30.83v-187.46c0-20.55,11.1-30.83,33.3-30.83h105.84c21.85,0,32.78,10.28,32.78,30.83v187.46ZM3305.64,3094.41v-155.15h-56.02v155.15h56.02Z"/><path class="cls-5" d="M1057.37,3628.18h-62.99l-66.6-179.32v-34.78h59.37v-122.34h-76.15v336.44h-60.4v-386.02h160.3c24.27,0,36.4,11.84,36.4,35.52v140.35c0,16.28-5.77,26.8-17.29,31.57-6.19,2.47-19.28,3.7-39.24,3.7l66.6,174.88Z"/><path class="cls-5" d="M1151.34,3343.28h-59.12v-58.21h59.12v58.21ZM1150.82,3628.18h-58.08v-249.13h58.08v249.13Z"/><path class="cls-5" d="M1371.27,3379.05l-66.6,249.62h-56.53l-66.6-249.62h60.66l34.33,163.78,34.33-163.78h60.41Z"/><path class="cls-5" d="M1569,3597.34c0,20.56-11.1,30.83-33.3,30.83h-101.97c-22.2,0-33.3-10.27-33.3-30.83v-187.46c0-20.55,11.1-30.83,33.3-30.83h101.97c22.2,0,33.3,10.28,33.3,30.83v91.51l-16.26,15.54h-95.77v69.8h55.5v-41.44h56.53v52.05ZM1512.47,3480.18v-59.69h-55.5v59.69h55.5Z"/><path class="cls-5" d="M1776.29,3483.14h-58.6v-56.98l-46.72.99v201.03h-59.11v-249.13h59.11v9.13c12.22-2.13,24.35-4.27,36.4-6.41,14.63-2.47,26.85-3.7,36.66-3.7,21.51,0,32.27,10.11,32.27,30.34v74.74Z"/><path class="cls-5" d="M1977.64,3628.18h-56.53v-8.63c-13.42,1.97-26.85,3.95-40.27,5.92-17.55,2.47-30.89,3.7-40.01,3.7-21.51,0-32.27-10.11-32.27-30.34v-89.78c0-20.56,11.1-30.83,33.3-30.83h79.76v-57.22h-56.53v35.52h-53.44v-46.62c0-20.55,11.1-30.83,33.3-30.83h99.9c21.85,0,32.78,10.28,32.78,30.83v218.29ZM1921.62,3583.28v-66.85h-56.53v68.82l56.53-1.97Z"/><path class="cls-4" d="M2290.76,3628.18h-158.75v-386.02h60.4v334.47h98.35v51.55Z"/><path class="cls-4" d="M2495.46,3597.34c0,20.56-10.93,30.83-32.78,30.83h-105.84c-22.2,0-33.3-10.27-33.3-30.83v-187.46c0-20.55,11.1-30.83,33.3-30.83h105.84c21.85,0,32.78,10.28,32.78,30.83v187.46ZM2486.43,3297.41l-75.12,65.12h-43.37v-1.97l44.4-65.37h74.09v2.22ZM2437.64,3581.31v-155.15h-56.02v155.15h56.02Z"/><path class="cls-4" d="M2712.04,3578.1c0,20.23-7.57,34.37-22.72,42.43-11.02,5.76-27.71,8.63-50.08,8.63-5.16,0-12.43-.17-21.81-.49-9.38-.33-16.13-.49-20.27-.49v91.02h-59.11v-340.14h59.11v9.13c13.77-1.97,27.53-4.03,41.3-6.17,17.38-2.63,31.15-3.95,41.3-3.95,21.51,0,32.27,10.11,32.27,30.34v169.7ZM2652.67,3562.56v-136.4l-55.5.99v154.16h36.66c12.56,0,18.84-6.25,18.84-18.75Z"/><path class="cls-4" d="M2922.43,3597.34c0,20.56-11.1,30.83-33.3,30.83h-101.97c-22.2,0-33.3-10.27-33.3-30.83v-187.46c0-20.55,11.1-30.83,33.3-30.83h101.97c22.2,0,33.3,10.28,33.3,30.83v91.51l-16.26,15.54h-95.77v69.8h55.5v-41.44h56.53v52.05ZM2865.89,3480.18v-59.69h-55.5v59.69h55.5Z"/><path class="cls-4" d="M3112.68,3628.18h-156.95v-33.3l86.74-169.7h-79.76v-46.13h149.98v33.55l-87.25,169.7h87.25v45.88Z"/><g id="mrl-3"><path id="r-2" class="cls-2" d="M2080.22,1164.81l-.48-466.7,1368.37-.66c89.62,19.21,118.35,69.08,144.45,109.88,37.83,59.14,61.5,149.25,67.43,189.81,32.51,222.25,33.1,399.26,4.53,622.05-4.56,35.57-6.38,67.58-18.95,110.17-10.79,36.24-19.41,69.76-45.01,104.58-44.12,60.01-121.94,82.61-216.58,109.66l109.33,223.25,300.45,718.67-241.1,377.43-691.3-1315.84-437.9.72-3.22,801.69-359.76-.21,17.83-1286.78,1108.67-7.78c60.48-47.3,58.65-82.01,63.88-132.26,4.72-45.33-4.2-111.05-56.82-154.46-378.87-1.07-734.97-2.15-1113.84-3.22Z"/><path id="l-2" class="cls-1" d="M1097.89,2769.17l343.96-19.78,414.96-1314.33c33.66-57.87,76.38-176.92,110.04-234.79,24.1-41.43,37.07-57.88,78.81-54.1,26.26,8.65,15.33,9.42,34.57,18.64l-.43-466.11c-70.37-4.78-126.33,1.55-182.8,20.34-52.29,17.4-95.94,60.88-153.61,115.33-125.61,211.98-189.27,485.66-285.18,742.05l-360.31,1192.76Z"/><path id="m-2" class="cls-6" d="M242.26,2960.11c1-580.25-11.99-1268.67-10.99-1848.92,12.58-67.14,26.03-80.11,48.85-122.58,24.42-45.43,65.73-97.38,92.89-141.13,13.47-18.79,47.32-71.17,74.47-92.68,24.18-19.17,65.23-18.7,93.52-24.35,42.04,0,66.87-.58,97.09,9.51,28.58,9.55,55.35,30.18,79.32,49.41,30.74,36.5,63.58,42.56,123.84,181.26,43.27,99.6,76,212.29,113.51,314.99,102.43,306.66,214.44,610.85,316.87,917.51l-173.76,576.03c-156.85-417.09-283.82-947.46-442.34-1349.27-15.49-39.26-52.69-14.74-72.49,35.03,2.3,651.83-2.04,1307.8.26,1959.62"/></g></svg>