<?xml version="1.0" encoding="UTF-8"?><svg id="mrl" xmlns="http://www.w3.org/2000/svg" xmlns:xlink="http://www.w3.org/1999/xlink" viewBox="0 0 4000 4000"><defs><style>.cls-1{fill:url(#Degradado_sin_nombre_36);}.cls-2{fill:url(#Degradado_sin_nombre_28);}.cls-3{fill:#fff;}.cls-4{fill:url(#Degradado_sin_nombre_32);}</style><linearGradient id="Degradado_sin_nombre_28" x1="2927.13" y1="3262.95" x2="2927.13" y2="697.44" gradientUnits="userSpaceOnUse"><stop offset=".13" stop-color="#00afef"/><stop offset=".33" stop-color="#00aaeb"/><stop offset=".56" stop-color="#019ce0"/><stop offset=".8" stop-color="#0386cd"/><stop offset=".97" stop-color="#0671bd"/></linearGradient><linearGradient id="Degradado_sin_nombre_36" x1="2080.22" y1="1733.17" x2="1097.89" y2="1733.17" gradientUnits="userSpaceOnUse"><stop offset=".01" stop-color="#5d5d5e"/><stop offset=".27" stop-color="#4f4f4f"/><stop offset=".77" stop-color="#2a2a2a"/><stop offset=".97" stop-color="#1a1a1a"/></linearGradient><linearGradient id="Degradado_sin_nombre_32" x1="751.43" y1="3424.55" x2="751.43" y2="730.45" gradientUnits="userSpaceOnUse"><stop offset="0" stop-color="#f9b70a"/><stop offset=".24" stop-color="#f9b209"/><stop offset=".52" stop-color="#f9a306"/><stop offset=".83" stop-color="#f98b03"/><stop offset=".97" stop-color="#f97e01"/></linearGradient></defs><circle class="cls-3" cx="2000" cy="2000" r="2000"/><g id="mrl-2"><path id="r" class="cls-3" d="M2080.22,1164.81l-.48-466.7,1368.37-.66c89.62,19.21,118.35,69.08,144.45,109.88,37.83,59.14,61.5,149.25,67.43,189.81,32.51,222.25,33.1,399.26,4.53,622.05-4.56,35.57-6.38,67.58-18.95,110.17-10.79,36.24-19.41,69.76-45.01,104.58-44.12,60.01-121.94,82.61-216.58,109.66l109.33,223.25,300.45,718.67-241.1,377.43-691.3-1315.84-437.9.72-3.22,801.69-359.76-.21,17.83-1286.78,1108.67-7.78c60.48-47.3,58.65-82.01,63.88-132.26,4.72-45.33-4.2-111.05-56.82-154.46-378.87-1.07-734.97-2.15-1113.84-3.22Z"/><path id="l" class="cls-3" d="M1097.89,2769.17l343.96-19.78,414.96-1314.33c33.66-57.87,76.38-176.92,110.04-234.79,24.1-41.43,37.07-57.88,78.81-54.1,26.26,8.65,15.33,9.42,34.57,18.64l-.43-466.11c-70.37-4.78-126.33,1.55-182.8,20.34-52.29,17.4-95.94,60.88-153.61,115.33-125.61,211.98-189.27,485.66-285.18,742.05l-360.31,1192.76Z"/><path id="m" class="cls-3" d="M242.26,2960.11c1-580.25-11.99-1268.67-10.99-1848.92,12.58-67.14,26.03-80.11,48.85-122.58,24.42-45.43,65.73-97.38,92.89-141.13,13.47-18.79,47.32-71.17,74.47-92.68,24.18-19.17,65.23-18.7,93.52-24.35,42.04,0,66.87-.58,97.09,9.51,28.58,9.55,55.35,30.18,79.32,49.41,30.74,36.5,63.58,42.56,123.84,181.26,43.27,99.6,76,212.29,113.51,314.99,102.43,306.66,214.44,610.85,316.87,917.51l-173.76,576.03c-156.85-417.09-283.82-947.46-442.34-1349.27-15.49-39.26-52.69-14.74-72.49,35.03,2.3,651.83-2.04,1307.8.26,1959.62"/></g><circle class="cls-3" cx="2000" cy="2000" r="2000"/><g id="mrl-3"><path id="r-2" class="cls-2" d="M2080.22,1164.81l-.48-466.7,1368.37-.66c89.62,19.21,118.35,69.08,144.45,109.88,37.83,59.14,61.5,149.25,67.43,189.81,32.51,222.25,33.1,399.26,4.53,622.05-4.56,35.57-6.38,67.58-18.95,110.17-10.79,36.24-19.41,69.76-45.01,104.58-44.12,60.01-121.94,82.61-216.58,109.66l109.33,223.25,300.45,718.67-241.1,377.43-691.3-1315.84-437.9.72-3.22,801.69-359.76-.21,17.83-1286.78,1108.67-7.78c60.48-47.3,58.65-82.01,63.88-132.26,4.72-45.33-4.2-111.05-56.82-154.46-378.87-1.07-734.97-2.15-1113.84-3.22Z"/><path id="l-2" class="cls-1" d="M1097.89,2769.17l343.96-19.78,414.96-1314.33c33.66-57.87,76.38-176.92,110.04-234.79,24.1-41.43,37.07-57.88,78.81-54.1,26.26,8.65,15.33,9.42,34.57,18.64l-.43-466.11c-70.37-4.78-126.33,1.55-182.8,20.34-52.29,17.4-95.94,60.88-153.61,115.33-125.61,211.98-189.27,485.66-285.18,742.05l-360.31,1192.76Z"/><path id="m-2" class="cls-4" d="M242.26,2960.11c1-580.25-11.99-1268.67-10.99-1848.92,12.58-67.14,26.03-80.11,48.85-122.58,24.42-45.43,65.73-97.38,92.89-141.13,13.47-18.79,47.32-71.17,74.47-92.68,24.18-19.17,65.23-18.7,93.52-24.35,42.04,0,66.87-.58,97.09,9.51,28.58,9.55,55.35,30.18,79.32,49.41,30.74,36.5,63.58,42.56,123.84,181.26,43.27,99.6,76,212.29,113.51,314.99,102.43,306.66,214.44,610.85,316.87,917.51l-173.76,576.03c-156.85-417.09-283.82-947.46-442.34-1349.27-15.49-39.26-52.69-14.74-72.49,35.03,2.3,651.83-2.04,1307.8.26,1959.62"/></g></svg>